<?xml version="1.0" encoding="utf-8"?>
<!-- Generator: Adobe Adobe Illustrator 24.2.0, SVG Export Plug-In . SVG Version: 6.00 Build 0)  -->
<svg version="1.1" id="Layer_1" xmlns="http://www.w3.org/2000/svg" xmlns:xlink="http://www.w3.org/1999/xlink" x="0px" y="0px"
	 width="347px" height="183px" viewBox="0 0 347 183" style="enable-background:new 0 0 347 183;" xml:space="preserve">
<style type="text/css">
	.st0{fill:#FFFFFF;stroke:#000000;stroke-miterlimit:10;}
	.st1{font-family:'TimesNewRomanPSMT';}
	.st2{font-size:12px;}
	.st3{fill:none;stroke:#000000;stroke-miterlimit:10;}
	.st4{fill:none;stroke:#000000;stroke-miterlimit:10;stroke-dasharray:2,2,2,2,2,2;}
	.st5{font-size:14px;}
</style>
<rect x="130.5" y="98.07" class="st0" width="73" height="26.85"/>
<text transform="matrix(1 0 0 1 132.1807 114.6466)" class="st1 st2">dynamics core</text>
<rect x="142.5" y="145.64" class="st0" width="49" height="17.5"/>
<text transform="matrix(1 0 0 1 144.5134 157.5332)" class="st1 st2">trajectory</text>
<rect x="27.88" y="4.16" class="st0" width="81" height="35"/>
<text transform="matrix(1 0 0 1 29.8821 24.8096)" class="st1 st2">simulation class</text>
<rect x="43.42" y="49.08" class="st0" width="44" height="23"/>
<text transform="matrix(1 0 0 1 50.7494 63.728)" class="st1 st2">inputs</text>
<rect x="43.42" y="86.57" class="st0" width="44" height="23"/>
<text transform="matrix(1 0 0 1 50.7494 101.2192)" class="st1 st2">seeds</text>
<rect x="221.88" y="4.16" class="st0" width="81" height="35"/>
<text transform="matrix(1 0 0 1 225.8862 24.8096)" class="st1 st2">algorithm class</text>
<rect x="240.82" y="104.53" class="st0" width="81" height="35"/>
<text transform="matrix(1 0 0 1 258.1636 125.1724)" class="st1 st2">data class</text>
<line class="st3" x1="108.88" y1="21.66" x2="146.99" y2="21.66"/>
<line class="st3" x1="146.99" y1="76.5" x2="146.99" y2="21.66"/>
<line class="st3" x1="191.17" y1="76.5" x2="191.17" y2="21.66"/>
<line class="st3" x1="221.88" y1="21.66" x2="191.17" y2="21.66"/>
<line class="st3" x1="65.42" y1="39.16" x2="65.42" y2="49.08"/>
<line class="st3" x1="167" y1="124.93" x2="167" y2="145.64"/>
<rect x="113.42" y="76.5" class="st4" width="112" height="98"/>
<text transform="matrix(1 0 0 1 129.5609 88.3965)" class="st1 st2">dynamics driver</text>
<text transform="matrix(1 0 0 1 3.4398 24.2694)" class="st1 st5">(a)</text>
<text transform="matrix(1 0 0 1 309.4398 25.3338)" class="st1 st5">(b)</text>
<text transform="matrix(1 0 0 1 87.4187 125.2522)" class="st1 st5">(c)</text>
<text transform="matrix(1 0 0 1 326.8383 125.6975)" class="st1 st5">(d)</text>
<line class="st3" x1="240.82" y1="122.03" x2="225.42" y2="122.03"/>
<line class="st3" x1="87.42" y1="98.07" x2="113.42" y2="98.07"/>
</svg>
