<?xml version="1.0" encoding="utf-8"?>
<!-- Generator: Adobe Adobe Illustrator 24.2.0, SVG Export Plug-In . SVG Version: 6.00 Build 0)  -->
<svg version="1.1" id="Layer_1" xmlns="http://www.w3.org/2000/svg" xmlns:xlink="http://www.w3.org/1999/xlink" x="0px" y="0px"
	 width="347px" height="130px" viewBox="0 0 347 130" style="enable-background:new 0 0 347 130;" xml:space="preserve">
<style type="text/css">
	.st0{fill:#FFFFFF;stroke:#000000;stroke-miterlimit:10;}
	.st1{font-family:'TimesNewRomanPSMT';}
	.st2{font-size:12px;}
	.st3{fill:none;stroke:#000000;stroke-miterlimit:10;}
	.st4{fill:none;stroke:#000000;stroke-miterlimit:10;stroke-dasharray:2,2,2,2,2,2;}
</style>
<rect x="151.06" y="46.65" class="st0" width="73" height="26.85"/>
<text transform="matrix(1 0 0 1 152.7362 63.2281)" class="st1 st2">dynamics core</text>
<rect x="149.56" y="93.58" class="st0" width="76" height="17.5"/>
<text transform="matrix(1 0 0 1 151.4904 105.478)" class="st1 st2">trajectory class</text>
<rect x="19.96" y="39.08" class="st0" width="81" height="35"/>
<text transform="matrix(1 0 0 1 21.9623 59.7281)" class="st1 st2">simulation class</text>
<rect x="38.46" y="6.16" class="st0" width="44" height="23"/>
<text transform="matrix(1 0 0 1 45.7895 20.8095)" class="st1 st2">inputs</text>
<rect x="19.96" y="87.5" class="st0" width="81" height="35"/>
<text transform="matrix(1 0 0 1 23.9665 108.1465)" class="st1 st2">algorithm class</text>
<rect x="261.38" y="53.11" class="st0" width="81" height="35"/>
<text transform="matrix(1 0 0 1 278.7191 73.7539)" class="st1 st2">data class</text>
<line class="st3" x1="100.96" y1="56.58" x2="133.97" y2="56.58"/>
<line class="st3" x1="101.42" y1="105.5" x2="133.51" y2="105.5"/>
<line class="st3" x1="60.46" y1="29.16" x2="60.46" y2="39.08"/>
<line class="st3" x1="187.56" y1="73.51" x2="187.56" y2="93.58"/>
<rect x="133.97" y="25.08" class="st4" width="112" height="98"/>
<text transform="matrix(1 0 0 1 150.1164 36.978)" class="st1 st2">dynamics driver</text>
<line class="st3" x1="261.38" y1="70.61" x2="245.97" y2="70.61"/>
</svg>
