<?xml version="1.0" encoding="utf-8" standalone="no"?>
<!DOCTYPE svg PUBLIC "-//W3C//DTD SVG 1.1//EN"
  "http://www.w3.org/Graphics/SVG/1.1/DTD/svg11.dtd">
<svg xmlns:xlink="http://www.w3.org/1999/xlink" width="460.8pt" height="345.6pt" viewBox="0 0 460.8 345.6" xmlns="http://www.w3.org/2000/svg" version="1.1">
 <metadata>
  <rdf:RDF xmlns:dc="http://purl.org/dc/elements/1.1/" xmlns:cc="http://creativecommons.org/ns#" xmlns:rdf="http://www.w3.org/1999/02/22-rdf-syntax-ns#">
   <cc:Work>
    <dc:type rdf:resource="http://purl.org/dc/dcmitype/StillImage"/>
    <dc:date>2024-07-19T09:12:43.889597</dc:date>
    <dc:format>image/svg+xml</dc:format>
    <dc:creator>
     <cc:Agent>
      <dc:title>Matplotlib v3.9.1, https://matplotlib.org/</dc:title>
     </cc:Agent>
    </dc:creator>
   </cc:Work>
  </rdf:RDF>
 </metadata>
 <defs>
  <style type="text/css">*{stroke-linejoin: round; stroke-linecap: butt}</style>
 </defs>
 <g id="figure_1">
  <g id="patch_1">
   <path d="M 0 345.6 
L 460.8 345.6 
L 460.8 0 
L 0 0 
z
" style="fill: #ffffff"/>
  </g>
  <g id="axes_1">
   <g id="patch_2">
    <path d="M 57.6 307.584 
L 414.72 307.584 
L 414.72 41.472 
L 57.6 41.472 
z
" style="fill: #ffffff"/>
   </g>
   <g id="matplotlib.axis_1">
    <g id="xtick_1">
     <g id="line2d_1">
      <defs>
       <path id="m68f3d76b02" d="M 0 0 
L 0 3.5 
" style="stroke: #000000; stroke-width: 0.8"/>
      </defs>
      <g>
       <use xlink:href="#m68f3d76b02" x="73.832727" y="307.584" style="stroke: #000000; stroke-width: 0.8"/>
      </g>
     </g>
     <g id="text_1">
      <!-- 0.0 -->
      <g transform="translate(65.881165 322.182437) scale(0.1 -0.1)">
       <defs>
        <path id="DejaVuSans-30" d="M 2034 4250 
Q 1547 4250 1301 3770 
Q 1056 3291 1056 2328 
Q 1056 1369 1301 889 
Q 1547 409 2034 409 
Q 2525 409 2770 889 
Q 3016 1369 3016 2328 
Q 3016 3291 2770 3770 
Q 2525 4250 2034 4250 
z
M 2034 4750 
Q 2819 4750 3233 4129 
Q 3647 3509 3647 2328 
Q 3647 1150 3233 529 
Q 2819 -91 2034 -91 
Q 1250 -91 836 529 
Q 422 1150 422 2328 
Q 422 3509 836 4129 
Q 1250 4750 2034 4750 
z
" transform="scale(0.015625)"/>
        <path id="DejaVuSans-2e" d="M 684 794 
L 1344 794 
L 1344 0 
L 684 0 
L 684 794 
z
" transform="scale(0.015625)"/>
       </defs>
       <use xlink:href="#DejaVuSans-30"/>
       <use xlink:href="#DejaVuSans-2e" x="63.623047"/>
       <use xlink:href="#DejaVuSans-30" x="95.410156"/>
      </g>
     </g>
    </g>
    <g id="xtick_2">
     <g id="line2d_2">
      <g>
       <use xlink:href="#m68f3d76b02" x="137.700852" y="307.584" style="stroke: #000000; stroke-width: 0.8"/>
      </g>
     </g>
     <g id="text_2">
      <!-- 0.2 -->
      <g transform="translate(129.749289 322.182437) scale(0.1 -0.1)">
       <defs>
        <path id="DejaVuSans-32" d="M 1228 531 
L 3431 531 
L 3431 0 
L 469 0 
L 469 531 
Q 828 903 1448 1529 
Q 2069 2156 2228 2338 
Q 2531 2678 2651 2914 
Q 2772 3150 2772 3378 
Q 2772 3750 2511 3984 
Q 2250 4219 1831 4219 
Q 1534 4219 1204 4116 
Q 875 4013 500 3803 
L 500 4441 
Q 881 4594 1212 4672 
Q 1544 4750 1819 4750 
Q 2544 4750 2975 4387 
Q 3406 4025 3406 3419 
Q 3406 3131 3298 2873 
Q 3191 2616 2906 2266 
Q 2828 2175 2409 1742 
Q 1991 1309 1228 531 
z
" transform="scale(0.015625)"/>
       </defs>
       <use xlink:href="#DejaVuSans-30"/>
       <use xlink:href="#DejaVuSans-2e" x="63.623047"/>
       <use xlink:href="#DejaVuSans-32" x="95.410156"/>
      </g>
     </g>
    </g>
    <g id="xtick_3">
     <g id="line2d_3">
      <g>
       <use xlink:href="#m68f3d76b02" x="201.568976" y="307.584" style="stroke: #000000; stroke-width: 0.8"/>
      </g>
     </g>
     <g id="text_3">
      <!-- 0.4 -->
      <g transform="translate(193.617413 322.182437) scale(0.1 -0.1)">
       <defs>
        <path id="DejaVuSans-34" d="M 2419 4116 
L 825 1625 
L 2419 1625 
L 2419 4116 
z
M 2253 4666 
L 3047 4666 
L 3047 1625 
L 3713 1625 
L 3713 1100 
L 3047 1100 
L 3047 0 
L 2419 0 
L 2419 1100 
L 313 1100 
L 313 1709 
L 2253 4666 
z
" transform="scale(0.015625)"/>
       </defs>
       <use xlink:href="#DejaVuSans-30"/>
       <use xlink:href="#DejaVuSans-2e" x="63.623047"/>
       <use xlink:href="#DejaVuSans-34" x="95.410156"/>
      </g>
     </g>
    </g>
    <g id="xtick_4">
     <g id="line2d_4">
      <g>
       <use xlink:href="#m68f3d76b02" x="265.4371" y="307.584" style="stroke: #000000; stroke-width: 0.8"/>
      </g>
     </g>
     <g id="text_4">
      <!-- 0.6 -->
      <g transform="translate(257.485538 322.182437) scale(0.1 -0.1)">
       <defs>
        <path id="DejaVuSans-36" d="M 2113 2584 
Q 1688 2584 1439 2293 
Q 1191 2003 1191 1497 
Q 1191 994 1439 701 
Q 1688 409 2113 409 
Q 2538 409 2786 701 
Q 3034 994 3034 1497 
Q 3034 2003 2786 2293 
Q 2538 2584 2113 2584 
z
M 3366 4563 
L 3366 3988 
Q 3128 4100 2886 4159 
Q 2644 4219 2406 4219 
Q 1781 4219 1451 3797 
Q 1122 3375 1075 2522 
Q 1259 2794 1537 2939 
Q 1816 3084 2150 3084 
Q 2853 3084 3261 2657 
Q 3669 2231 3669 1497 
Q 3669 778 3244 343 
Q 2819 -91 2113 -91 
Q 1303 -91 875 529 
Q 447 1150 447 2328 
Q 447 3434 972 4092 
Q 1497 4750 2381 4750 
Q 2619 4750 2861 4703 
Q 3103 4656 3366 4563 
z
" transform="scale(0.015625)"/>
       </defs>
       <use xlink:href="#DejaVuSans-30"/>
       <use xlink:href="#DejaVuSans-2e" x="63.623047"/>
       <use xlink:href="#DejaVuSans-36" x="95.410156"/>
      </g>
     </g>
    </g>
    <g id="xtick_5">
     <g id="line2d_5">
      <g>
       <use xlink:href="#m68f3d76b02" x="329.305225" y="307.584" style="stroke: #000000; stroke-width: 0.8"/>
      </g>
     </g>
     <g id="text_5">
      <!-- 0.8 -->
      <g transform="translate(321.353662 322.182437) scale(0.1 -0.1)">
       <defs>
        <path id="DejaVuSans-38" d="M 2034 2216 
Q 1584 2216 1326 1975 
Q 1069 1734 1069 1313 
Q 1069 891 1326 650 
Q 1584 409 2034 409 
Q 2484 409 2743 651 
Q 3003 894 3003 1313 
Q 3003 1734 2745 1975 
Q 2488 2216 2034 2216 
z
M 1403 2484 
Q 997 2584 770 2862 
Q 544 3141 544 3541 
Q 544 4100 942 4425 
Q 1341 4750 2034 4750 
Q 2731 4750 3128 4425 
Q 3525 4100 3525 3541 
Q 3525 3141 3298 2862 
Q 3072 2584 2669 2484 
Q 3125 2378 3379 2068 
Q 3634 1759 3634 1313 
Q 3634 634 3220 271 
Q 2806 -91 2034 -91 
Q 1263 -91 848 271 
Q 434 634 434 1313 
Q 434 1759 690 2068 
Q 947 2378 1403 2484 
z
M 1172 3481 
Q 1172 3119 1398 2916 
Q 1625 2713 2034 2713 
Q 2441 2713 2670 2916 
Q 2900 3119 2900 3481 
Q 2900 3844 2670 4047 
Q 2441 4250 2034 4250 
Q 1625 4250 1398 4047 
Q 1172 3844 1172 3481 
z
" transform="scale(0.015625)"/>
       </defs>
       <use xlink:href="#DejaVuSans-30"/>
       <use xlink:href="#DejaVuSans-2e" x="63.623047"/>
       <use xlink:href="#DejaVuSans-38" x="95.410156"/>
      </g>
     </g>
    </g>
    <g id="xtick_6">
     <g id="line2d_6">
      <g>
       <use xlink:href="#m68f3d76b02" x="393.173349" y="307.584" style="stroke: #000000; stroke-width: 0.8"/>
      </g>
     </g>
     <g id="text_6">
      <!-- 1.0 -->
      <g transform="translate(385.221786 322.182437) scale(0.1 -0.1)">
       <defs>
        <path id="DejaVuSans-31" d="M 794 531 
L 1825 531 
L 1825 4091 
L 703 3866 
L 703 4441 
L 1819 4666 
L 2450 4666 
L 2450 531 
L 3481 531 
L 3481 0 
L 794 0 
L 794 531 
z
" transform="scale(0.015625)"/>
       </defs>
       <use xlink:href="#DejaVuSans-31"/>
       <use xlink:href="#DejaVuSans-2e" x="63.623047"/>
       <use xlink:href="#DejaVuSans-30" x="95.410156"/>
      </g>
     </g>
    </g>
    <g id="text_7">
     <!-- t(ps) -->
     <g transform="translate(224.519375 335.860562) scale(0.1 -0.1)">
      <defs>
       <path id="DejaVuSans-74" d="M 1172 4494 
L 1172 3500 
L 2356 3500 
L 2356 3053 
L 1172 3053 
L 1172 1153 
Q 1172 725 1289 603 
Q 1406 481 1766 481 
L 2356 481 
L 2356 0 
L 1766 0 
Q 1100 0 847 248 
Q 594 497 594 1153 
L 594 3053 
L 172 3053 
L 172 3500 
L 594 3500 
L 594 4494 
L 1172 4494 
z
" transform="scale(0.015625)"/>
       <path id="DejaVuSans-28" d="M 1984 4856 
Q 1566 4138 1362 3434 
Q 1159 2731 1159 2009 
Q 1159 1288 1364 580 
Q 1569 -128 1984 -844 
L 1484 -844 
Q 1016 -109 783 600 
Q 550 1309 550 2009 
Q 550 2706 781 3412 
Q 1013 4119 1484 4856 
L 1984 4856 
z
" transform="scale(0.015625)"/>
       <path id="DejaVuSans-70" d="M 1159 525 
L 1159 -1331 
L 581 -1331 
L 581 3500 
L 1159 3500 
L 1159 2969 
Q 1341 3281 1617 3432 
Q 1894 3584 2278 3584 
Q 2916 3584 3314 3078 
Q 3713 2572 3713 1747 
Q 3713 922 3314 415 
Q 2916 -91 2278 -91 
Q 1894 -91 1617 61 
Q 1341 213 1159 525 
z
M 3116 1747 
Q 3116 2381 2855 2742 
Q 2594 3103 2138 3103 
Q 1681 3103 1420 2742 
Q 1159 2381 1159 1747 
Q 1159 1113 1420 752 
Q 1681 391 2138 391 
Q 2594 391 2855 752 
Q 3116 1113 3116 1747 
z
" transform="scale(0.015625)"/>
       <path id="DejaVuSans-73" d="M 2834 3397 
L 2834 2853 
Q 2591 2978 2328 3040 
Q 2066 3103 1784 3103 
Q 1356 3103 1142 2972 
Q 928 2841 928 2578 
Q 928 2378 1081 2264 
Q 1234 2150 1697 2047 
L 1894 2003 
Q 2506 1872 2764 1633 
Q 3022 1394 3022 966 
Q 3022 478 2636 193 
Q 2250 -91 1575 -91 
Q 1294 -91 989 -36 
Q 684 19 347 128 
L 347 722 
Q 666 556 975 473 
Q 1284 391 1588 391 
Q 1994 391 2212 530 
Q 2431 669 2431 922 
Q 2431 1156 2273 1281 
Q 2116 1406 1581 1522 
L 1381 1569 
Q 847 1681 609 1914 
Q 372 2147 372 2553 
Q 372 3047 722 3315 
Q 1072 3584 1716 3584 
Q 2034 3584 2315 3537 
Q 2597 3491 2834 3397 
z
" transform="scale(0.015625)"/>
       <path id="DejaVuSans-29" d="M 513 4856 
L 1013 4856 
Q 1481 4119 1714 3412 
Q 1947 2706 1947 2009 
Q 1947 1309 1714 600 
Q 1481 -109 1013 -844 
L 513 -844 
Q 928 -128 1133 580 
Q 1338 1288 1338 2009 
Q 1338 2731 1133 3434 
Q 928 4138 513 4856 
z
" transform="scale(0.015625)"/>
      </defs>
      <use xlink:href="#DejaVuSans-74"/>
      <use xlink:href="#DejaVuSans-28" x="39.208984"/>
      <use xlink:href="#DejaVuSans-70" x="78.222656"/>
      <use xlink:href="#DejaVuSans-73" x="141.699219"/>
      <use xlink:href="#DejaVuSans-29" x="193.798828"/>
     </g>
    </g>
   </g>
   <g id="matplotlib.axis_2">
    <g id="ytick_1">
     <g id="line2d_7">
      <defs>
       <path id="md36cd6b9a5" d="M 0 0 
L -3.5 0 
" style="stroke: #000000; stroke-width: 0.8"/>
      </defs>
      <g>
       <use xlink:href="#md36cd6b9a5" x="57.6" y="280.992606" style="stroke: #000000; stroke-width: 0.8"/>
      </g>
     </g>
     <g id="text_8">
      <!-- −0.03 -->
      <g transform="translate(19.954687 284.791824) scale(0.1 -0.1)">
       <defs>
        <path id="DejaVuSans-2212" d="M 678 2272 
L 4684 2272 
L 4684 1741 
L 678 1741 
L 678 2272 
z
" transform="scale(0.015625)"/>
        <path id="DejaVuSans-33" d="M 2597 2516 
Q 3050 2419 3304 2112 
Q 3559 1806 3559 1356 
Q 3559 666 3084 287 
Q 2609 -91 1734 -91 
Q 1441 -91 1130 -33 
Q 819 25 488 141 
L 488 750 
Q 750 597 1062 519 
Q 1375 441 1716 441 
Q 2309 441 2620 675 
Q 2931 909 2931 1356 
Q 2931 1769 2642 2001 
Q 2353 2234 1838 2234 
L 1294 2234 
L 1294 2753 
L 1863 2753 
Q 2328 2753 2575 2939 
Q 2822 3125 2822 3475 
Q 2822 3834 2567 4026 
Q 2313 4219 1838 4219 
Q 1578 4219 1281 4162 
Q 984 4106 628 3988 
L 628 4550 
Q 988 4650 1302 4700 
Q 1616 4750 1894 4750 
Q 2613 4750 3031 4423 
Q 3450 4097 3450 3541 
Q 3450 3153 3228 2886 
Q 3006 2619 2597 2516 
z
" transform="scale(0.015625)"/>
       </defs>
       <use xlink:href="#DejaVuSans-2212"/>
       <use xlink:href="#DejaVuSans-30" x="83.789062"/>
       <use xlink:href="#DejaVuSans-2e" x="147.412109"/>
       <use xlink:href="#DejaVuSans-30" x="179.199219"/>
       <use xlink:href="#DejaVuSans-33" x="242.822266"/>
      </g>
     </g>
    </g>
    <g id="ytick_2">
     <g id="line2d_8">
      <g>
       <use xlink:href="#md36cd6b9a5" x="57.6" y="245.519388" style="stroke: #000000; stroke-width: 0.8"/>
      </g>
     </g>
     <g id="text_9">
      <!-- −0.02 -->
      <g transform="translate(19.954687 249.318607) scale(0.1 -0.1)">
       <use xlink:href="#DejaVuSans-2212"/>
       <use xlink:href="#DejaVuSans-30" x="83.789062"/>
       <use xlink:href="#DejaVuSans-2e" x="147.412109"/>
       <use xlink:href="#DejaVuSans-30" x="179.199219"/>
       <use xlink:href="#DejaVuSans-32" x="242.822266"/>
      </g>
     </g>
    </g>
    <g id="ytick_3">
     <g id="line2d_9">
      <g>
       <use xlink:href="#md36cd6b9a5" x="57.6" y="210.046171" style="stroke: #000000; stroke-width: 0.8"/>
      </g>
     </g>
     <g id="text_10">
      <!-- −0.01 -->
      <g transform="translate(19.954687 213.84539) scale(0.1 -0.1)">
       <use xlink:href="#DejaVuSans-2212"/>
       <use xlink:href="#DejaVuSans-30" x="83.789062"/>
       <use xlink:href="#DejaVuSans-2e" x="147.412109"/>
       <use xlink:href="#DejaVuSans-30" x="179.199219"/>
       <use xlink:href="#DejaVuSans-31" x="242.822266"/>
      </g>
     </g>
    </g>
    <g id="ytick_4">
     <g id="line2d_10">
      <g>
       <use xlink:href="#md36cd6b9a5" x="57.6" y="174.572954" style="stroke: #000000; stroke-width: 0.8"/>
      </g>
     </g>
     <g id="text_11">
      <!-- 0.00 -->
      <g transform="translate(28.334375 178.372173) scale(0.1 -0.1)">
       <use xlink:href="#DejaVuSans-30"/>
       <use xlink:href="#DejaVuSans-2e" x="63.623047"/>
       <use xlink:href="#DejaVuSans-30" x="95.410156"/>
       <use xlink:href="#DejaVuSans-30" x="159.033203"/>
      </g>
     </g>
    </g>
    <g id="ytick_5">
     <g id="line2d_11">
      <g>
       <use xlink:href="#md36cd6b9a5" x="57.6" y="139.099737" style="stroke: #000000; stroke-width: 0.8"/>
      </g>
     </g>
     <g id="text_12">
      <!-- 0.01 -->
      <g transform="translate(28.334375 142.898956) scale(0.1 -0.1)">
       <use xlink:href="#DejaVuSans-30"/>
       <use xlink:href="#DejaVuSans-2e" x="63.623047"/>
       <use xlink:href="#DejaVuSans-30" x="95.410156"/>
       <use xlink:href="#DejaVuSans-31" x="159.033203"/>
      </g>
     </g>
    </g>
    <g id="ytick_6">
     <g id="line2d_12">
      <g>
       <use xlink:href="#md36cd6b9a5" x="57.6" y="103.62652" style="stroke: #000000; stroke-width: 0.8"/>
      </g>
     </g>
     <g id="text_13">
      <!-- 0.02 -->
      <g transform="translate(28.334375 107.425739) scale(0.1 -0.1)">
       <use xlink:href="#DejaVuSans-30"/>
       <use xlink:href="#DejaVuSans-2e" x="63.623047"/>
       <use xlink:href="#DejaVuSans-30" x="95.410156"/>
       <use xlink:href="#DejaVuSans-32" x="159.033203"/>
      </g>
     </g>
    </g>
    <g id="ytick_7">
     <g id="line2d_13">
      <g>
       <use xlink:href="#md36cd6b9a5" x="57.6" y="68.153303" style="stroke: #000000; stroke-width: 0.8"/>
      </g>
     </g>
     <g id="text_14">
      <!-- 0.03 -->
      <g transform="translate(28.334375 71.952522) scale(0.1 -0.1)">
       <use xlink:href="#DejaVuSans-30"/>
       <use xlink:href="#DejaVuSans-2e" x="63.623047"/>
       <use xlink:href="#DejaVuSans-30" x="95.410156"/>
       <use xlink:href="#DejaVuSans-33" x="159.033203"/>
      </g>
     </g>
    </g>
    <g id="text_15">
     <!-- change in energy -->
     <g transform="translate(13.875 218.088937) rotate(-90) scale(0.1 -0.1)">
      <defs>
       <path id="DejaVuSans-63" d="M 3122 3366 
L 3122 2828 
Q 2878 2963 2633 3030 
Q 2388 3097 2138 3097 
Q 1578 3097 1268 2742 
Q 959 2388 959 1747 
Q 959 1106 1268 751 
Q 1578 397 2138 397 
Q 2388 397 2633 464 
Q 2878 531 3122 666 
L 3122 134 
Q 2881 22 2623 -34 
Q 2366 -91 2075 -91 
Q 1284 -91 818 406 
Q 353 903 353 1747 
Q 353 2603 823 3093 
Q 1294 3584 2113 3584 
Q 2378 3584 2631 3529 
Q 2884 3475 3122 3366 
z
" transform="scale(0.015625)"/>
       <path id="DejaVuSans-68" d="M 3513 2113 
L 3513 0 
L 2938 0 
L 2938 2094 
Q 2938 2591 2744 2837 
Q 2550 3084 2163 3084 
Q 1697 3084 1428 2787 
Q 1159 2491 1159 1978 
L 1159 0 
L 581 0 
L 581 4863 
L 1159 4863 
L 1159 2956 
Q 1366 3272 1645 3428 
Q 1925 3584 2291 3584 
Q 2894 3584 3203 3211 
Q 3513 2838 3513 2113 
z
" transform="scale(0.015625)"/>
       <path id="DejaVuSans-61" d="M 2194 1759 
Q 1497 1759 1228 1600 
Q 959 1441 959 1056 
Q 959 750 1161 570 
Q 1363 391 1709 391 
Q 2188 391 2477 730 
Q 2766 1069 2766 1631 
L 2766 1759 
L 2194 1759 
z
M 3341 1997 
L 3341 0 
L 2766 0 
L 2766 531 
Q 2569 213 2275 61 
Q 1981 -91 1556 -91 
Q 1019 -91 701 211 
Q 384 513 384 1019 
Q 384 1609 779 1909 
Q 1175 2209 1959 2209 
L 2766 2209 
L 2766 2266 
Q 2766 2663 2505 2880 
Q 2244 3097 1772 3097 
Q 1472 3097 1187 3025 
Q 903 2953 641 2809 
L 641 3341 
Q 956 3463 1253 3523 
Q 1550 3584 1831 3584 
Q 2591 3584 2966 3190 
Q 3341 2797 3341 1997 
z
" transform="scale(0.015625)"/>
       <path id="DejaVuSans-6e" d="M 3513 2113 
L 3513 0 
L 2938 0 
L 2938 2094 
Q 2938 2591 2744 2837 
Q 2550 3084 2163 3084 
Q 1697 3084 1428 2787 
Q 1159 2491 1159 1978 
L 1159 0 
L 581 0 
L 581 3500 
L 1159 3500 
L 1159 2956 
Q 1366 3272 1645 3428 
Q 1925 3584 2291 3584 
Q 2894 3584 3203 3211 
Q 3513 2838 3513 2113 
z
" transform="scale(0.015625)"/>
       <path id="DejaVuSans-67" d="M 2906 1791 
Q 2906 2416 2648 2759 
Q 2391 3103 1925 3103 
Q 1463 3103 1205 2759 
Q 947 2416 947 1791 
Q 947 1169 1205 825 
Q 1463 481 1925 481 
Q 2391 481 2648 825 
Q 2906 1169 2906 1791 
z
M 3481 434 
Q 3481 -459 3084 -895 
Q 2688 -1331 1869 -1331 
Q 1566 -1331 1297 -1286 
Q 1028 -1241 775 -1147 
L 775 -588 
Q 1028 -725 1275 -790 
Q 1522 -856 1778 -856 
Q 2344 -856 2625 -561 
Q 2906 -266 2906 331 
L 2906 616 
Q 2728 306 2450 153 
Q 2172 0 1784 0 
Q 1141 0 747 490 
Q 353 981 353 1791 
Q 353 2603 747 3093 
Q 1141 3584 1784 3584 
Q 2172 3584 2450 3431 
Q 2728 3278 2906 2969 
L 2906 3500 
L 3481 3500 
L 3481 434 
z
" transform="scale(0.015625)"/>
       <path id="DejaVuSans-65" d="M 3597 1894 
L 3597 1613 
L 953 1613 
Q 991 1019 1311 708 
Q 1631 397 2203 397 
Q 2534 397 2845 478 
Q 3156 559 3463 722 
L 3463 178 
Q 3153 47 2828 -22 
Q 2503 -91 2169 -91 
Q 1331 -91 842 396 
Q 353 884 353 1716 
Q 353 2575 817 3079 
Q 1281 3584 2069 3584 
Q 2775 3584 3186 3129 
Q 3597 2675 3597 1894 
z
M 3022 2063 
Q 3016 2534 2758 2815 
Q 2500 3097 2075 3097 
Q 1594 3097 1305 2825 
Q 1016 2553 972 2059 
L 3022 2063 
z
" transform="scale(0.015625)"/>
       <path id="DejaVuSans-20" transform="scale(0.015625)"/>
       <path id="DejaVuSans-69" d="M 603 3500 
L 1178 3500 
L 1178 0 
L 603 0 
L 603 3500 
z
M 603 4863 
L 1178 4863 
L 1178 4134 
L 603 4134 
L 603 4863 
z
" transform="scale(0.015625)"/>
       <path id="DejaVuSans-72" d="M 2631 2963 
Q 2534 3019 2420 3045 
Q 2306 3072 2169 3072 
Q 1681 3072 1420 2755 
Q 1159 2438 1159 1844 
L 1159 0 
L 581 0 
L 581 3500 
L 1159 3500 
L 1159 2956 
Q 1341 3275 1631 3429 
Q 1922 3584 2338 3584 
Q 2397 3584 2469 3576 
Q 2541 3569 2628 3553 
L 2631 2963 
z
" transform="scale(0.015625)"/>
       <path id="DejaVuSans-79" d="M 2059 -325 
Q 1816 -950 1584 -1140 
Q 1353 -1331 966 -1331 
L 506 -1331 
L 506 -850 
L 844 -850 
Q 1081 -850 1212 -737 
Q 1344 -625 1503 -206 
L 1606 56 
L 191 3500 
L 800 3500 
L 1894 763 
L 2988 3500 
L 3597 3500 
L 2059 -325 
z
" transform="scale(0.015625)"/>
      </defs>
      <use xlink:href="#DejaVuSans-63"/>
      <use xlink:href="#DejaVuSans-68" x="54.980469"/>
      <use xlink:href="#DejaVuSans-61" x="118.359375"/>
      <use xlink:href="#DejaVuSans-6e" x="179.638672"/>
      <use xlink:href="#DejaVuSans-67" x="243.017578"/>
      <use xlink:href="#DejaVuSans-65" x="306.494141"/>
      <use xlink:href="#DejaVuSans-20" x="368.017578"/>
      <use xlink:href="#DejaVuSans-69" x="399.804688"/>
      <use xlink:href="#DejaVuSans-6e" x="427.587891"/>
      <use xlink:href="#DejaVuSans-20" x="490.966797"/>
      <use xlink:href="#DejaVuSans-65" x="522.753906"/>
      <use xlink:href="#DejaVuSans-6e" x="584.277344"/>
      <use xlink:href="#DejaVuSans-65" x="647.65625"/>
      <use xlink:href="#DejaVuSans-72" x="709.179688"/>
      <use xlink:href="#DejaVuSans-67" x="748.542969"/>
      <use xlink:href="#DejaVuSans-79" x="812.019531"/>
     </g>
    </g>
   </g>
   <g id="line2d_14">
    <path d="M 73.832727 174.572954 
L 74.248951 174.551668 
L 74.914909 175.102303 
L 75.913846 175.813776 
L 76.33007 175.71665 
L 76.663049 175.458307 
L 77.079273 174.948985 
L 77.994965 174.250446 
L 78.411189 174.315823 
L 78.827413 174.58564 
L 79.243636 175.017261 
L 80.076084 175.506986 
L 80.492308 175.461929 
L 80.991776 175.219213 
L 81.408 174.930174 
L 82.073958 174.746247 
L 82.490182 174.848588 
L 83.822098 175.795971 
L 84.571301 175.996369 
L 86.569175 176.149519 
L 87.318378 176.508018 
L 87.734601 176.729197 
L 90.065455 177.6048 
L 90.564923 177.911698 
L 91.314126 178.369632 
L 91.73035 178.66092 
L 92.562797 179.177731 
L 93.062266 179.570026 
L 93.47849 179.90297 
L 93.894713 180.333978 
L 94.394182 180.802533 
L 94.810406 181.295751 
L 95.309874 181.800568 
L 95.726098 182.30521 
L 96.475301 183.073137 
L 96.891524 183.536283 
L 97.723972 184.306047 
L 98.140196 184.781965 
L 98.639664 185.316771 
L 99.055888 185.927859 
L 99.555357 186.601685 
L 99.888336 187.193169 
L 101.553231 188.99692 
L 102.302434 189.538458 
L 104.133818 192.399439 
L 104.466797 193.076714 
L 105.38249 194.023769 
L 106.79765 194.708169 
L 107.130629 195.105698 
L 107.546853 195.878878 
L 108.046322 196.785931 
L 108.296056 197.28652 
L 109.128503 198.335569 
L 109.627972 198.419327 
L 110.793399 198.133536 
L 111.376112 198.4615 
L 111.709091 198.831054 
L 112.125315 199.441161 
L 112.957762 200.140834 
L 113.207497 200.154618 
L 113.79021 199.764798 
L 114.123189 199.386176 
L 114.372923 199.068471 
L 115.205371 198.417428 
L 115.704839 198.441642 
L 116.537287 198.77332 
L 116.95351 198.758461 
L 117.28649 198.572455 
L 117.702713 198.163292 
L 118.118937 197.622653 
L 118.368671 197.244368 
L 119.450853 196.20132 
L 120.116811 196.134614 
L 120.949259 196.049606 
L 121.448727 195.791555 
L 121.948196 195.325457 
L 123.446601 194.284325 
L 124.362294 194.276278 
L 125.277986 194.192614 
L 127.109371 193.9246 
L 127.775329 194.16936 
L 128.774266 194.66661 
L 129.273734 194.914282 
L 130.022937 195.293655 
L 130.77214 195.899928 
L 131.188364 196.295959 
L 131.604587 196.815937 
L 132.104056 197.368652 
L 132.52028 197.927992 
L 133.352727 198.872411 
L 133.768951 199.419544 
L 134.26842 199.973265 
L 134.684643 200.540984 
L 135.184112 201.131054 
L 135.600336 201.754266 
L 136.099804 202.420648 
L 136.349538 202.821752 
L 136.682517 203.339869 
L 136.932252 203.761671 
L 137.348476 204.389408 
L 137.681455 204.985985 
L 140.095552 207.892349 
L 140.511776 208.670164 
L 141.011245 209.551029 
L 141.344224 210.314492 
L 142.67614 212.080475 
L 143.758322 212.831013 
L 146.255664 216.625425 
L 146.755133 216.745002 
L 148.003804 216.668852 
L 148.753007 217.338928 
L 149.169231 217.838657 
L 149.418965 218.147882 
L 150.084923 218.557434 
L 150.417902 218.490206 
L 152.249287 216.931015 
L 152.66551 216.997964 
L 153.997427 217.347017 
L 154.330406 217.129861 
L 154.663385 216.761892 
L 155.079608 216.097339 
L 156.16179 214.940778 
L 156.661259 214.875784 
L 158.07642 214.976936 
L 159.241846 213.794925 
L 159.49158 213.515435 
L 160.240783 213.08051 
L 160.823497 213.152929 
L 161.905678 213.289142 
L 162.321902 213.13726 
L 163.071105 212.598391 
L 163.903552 212.241969 
L 164.403021 212.310064 
L 165.818182 213.03265 
L 168.06579 213.768607 
L 168.565259 214.229498 
L 168.981483 214.637745 
L 169.397706 215.133841 
L 170.230154 215.933111 
L 170.646378 216.351482 
L 171.478825 217.021279 
L 171.895049 217.410037 
L 172.561007 217.995991 
L 172.977231 218.378392 
L 173.393455 218.86182 
L 173.892923 219.380168 
L 174.309147 219.909433 
L 176.223776 221.489735 
L 176.889734 221.882917 
L 177.472448 222.385244 
L 177.805427 222.742052 
L 178.22165 223.296459 
L 179.636811 224.521324 
L 180.053035 224.650637 
L 180.885483 224.851063 
L 181.88442 225.749068 
L 182.383888 226.310472 
L 182.633622 226.60575 
L 183.46607 227.144002 
L 184.048783 227.121481 
L 184.964476 227.09317 
L 185.380699 227.294851 
L 185.796923 227.636608 
L 186.213147 228.110226 
L 187.045594 228.645883 
L 187.461818 228.58488 
L 187.878042 228.351961 
L 188.294266 227.993726 
L 189.043469 227.659109 
L 189.459692 227.716018 
L 190.458629 228.264449 
L 190.958098 228.287725 
L 191.540811 227.895861 
L 191.957035 227.360669 
L 193.039217 226.442303 
L 193.372196 226.433378 
L 194.870601 226.981139 
L 195.453315 226.659525 
L 195.786294 226.326705 
L 196.119273 225.958468 
L 196.369007 225.687942 
L 197.034965 225.317325 
L 197.451189 225.391167 
L 197.950657 225.658115 
L 198.366881 225.946841 
L 198.949594 226.083052 
L 199.449063 225.917153 
L 200.031776 225.468403 
L 200.947469 224.973403 
L 201.363692 225.062649 
L 201.863161 225.362845 
L 202.529119 225.91801 
L 202.862098 226.143882 
L 203.195077 226.312853 
L 203.94428 226.358267 
L 204.859972 226.397023 
L 205.276196 226.581133 
L 207.773538 229.168985 
L 209.771413 230.295773 
L 210.104392 230.599555 
L 210.520615 231.096035 
L 211.020084 231.628706 
L 211.269818 231.923547 
L 212.601734 232.92562 
L 213.101203 233.108139 
L 213.767161 233.346344 
L 215.598545 234.889393 
L 215.931524 235.158026 
L 216.264503 235.361553 
L 216.680727 235.53117 
L 218.179133 235.894109 
L 218.678601 236.21069 
L 219.094825 236.617973 
L 220.426741 237.492785 
L 221.592168 237.597497 
L 222.091636 237.772933 
L 222.591105 238.079509 
L 223.007329 238.473367 
L 224.08951 239.109145 
L 224.672224 239.079978 
L 226.00414 238.893886 
L 227.003077 239.537771 
L 227.835524 239.920865 
L 228.251748 239.856585 
L 228.751217 239.598177 
L 229.167441 239.276143 
L 229.916643 239.025363 
L 230.499357 239.243849 
L 230.832336 239.488843 
L 231.248559 239.845954 
L 231.914517 240.081562 
L 232.330741 239.971452 
L 232.66372 239.7531 
L 233.079944 239.358912 
L 233.912392 238.920737 
L 234.328615 239.002583 
L 234.828084 239.312163 
L 235.244308 239.70373 
L 235.99351 240.060468 
L 236.409734 239.966184 
L 236.909203 239.659926 
L 238.074629 239.004273 
L 238.490853 239.120872 
L 240.072503 240.537922 
L 240.655217 240.649382 
L 241.321175 240.478778 
L 242.070378 240.384269 
L 242.403357 240.497815 
L 243.652028 241.7985 
L 243.901762 242.114499 
L 244.817455 242.824243 
L 245.566657 242.921546 
L 246.399105 243.01541 
L 247.314797 243.667152 
L 247.731021 244.17297 
L 249.146182 245.305408 
L 249.562406 245.402016 
L 250.727832 245.579605 
L 251.310545 245.885446 
L 251.810014 246.344164 
L 252.475972 246.958548 
L 252.808951 247.208526 
L 253.14193 247.421315 
L 254.140867 247.620214 
L 254.89007 247.7872 
L 257.304168 249.313986 
L 259.468531 249.789308 
L 259.968 250.12032 
L 261.050182 250.543741 
L 261.632895 250.494976 
L 262.382098 250.343276 
L 262.964811 250.41534 
L 263.46428 250.634174 
L 263.963748 250.978897 
L 264.962685 251.377492 
L 265.628643 251.262078 
L 266.211357 251.067338 
L 266.62758 251.029976 
L 267.127049 251.18395 
L 268.292476 252.178271 
L 269.041678 252.547157 
L 269.541147 252.485391 
L 270.29035 252.17725 
L 270.873063 252.142635 
L 271.289287 252.321906 
L 271.70551 252.648955 
L 272.121734 253.12239 
L 273.120671 253.814909 
L 273.62014 253.79275 
L 274.452587 253.500432 
L 274.868811 253.445716 
L 275.285035 253.576492 
L 275.618014 253.821024 
L 276.117483 254.39705 
L 277.532643 255.62005 
L 278.115357 255.607942 
L 278.864559 255.484587 
L 279.280783 255.561477 
L 280.196476 256.328966 
L 280.612699 256.887328 
L 281.694881 257.76043 
L 282.277594 257.798965 
L 283.60951 257.683404 
L 284.441958 258.252069 
L 284.858182 258.706616 
L 285.857119 259.379022 
L 286.439832 259.383853 
L 288.021483 259.20894 
L 288.437706 259.436136 
L 288.937175 259.891689 
L 290.352336 260.816351 
L 291.184783 260.793566 
L 291.767497 260.827694 
L 292.599944 261.34255 
L 293.016168 261.741416 
L 293.349147 262.089569 
L 293.682126 262.460338 
L 294.514573 262.864128 
L 295.097287 262.897097 
L 296.012979 262.984043 
L 296.429203 263.205849 
L 297.011916 263.578287 
L 297.42814 263.898832 
L 298.177343 264.142133 
L 298.843301 264.014681 
L 299.426014 263.793679 
L 299.842238 263.708783 
L 300.424951 263.813715 
L 301.257399 264.174986 
L 301.673622 264.312091 
L 302.256336 264.256857 
L 302.839049 263.988958 
L 303.837986 263.699645 
L 304.25421 263.808996 
L 305.336392 264.554643 
L 306.085594 264.775694 
L 306.751552 264.615599 
L 307.251021 264.427759 
L 307.833734 264.428202 
L 308.249958 264.631286 
L 308.999161 265.397718 
L 310.081343 266.182985 
L 310.497566 266.20438 
L 311.912727 266.076048 
L 312.82842 266.841507 
L 313.244643 267.386909 
L 314.24358 268.146095 
L 314.826294 268.158575 
L 316.074965 268.046176 
L 316.491189 268.243609 
L 317.240392 268.974345 
L 318.489063 269.874361 
L 319.071776 269.856035 
L 320.486937 269.685323 
L 321.06965 269.949807 
L 321.569119 270.358967 
L 322.81779 271.049109 
L 323.400503 270.979495 
L 324.982154 270.663772 
L 325.897846 271.174978 
L 326.31407 271.508311 
L 327.146517 271.842326 
L 327.645986 271.815029 
L 329.227636 271.644635 
L 329.560615 271.812424 
L 330.143329 272.280821 
L 331.475245 273.084421 
L 332.141203 273.003233 
L 333.223385 272.895513 
L 334.139077 273.366893 
L 334.555301 273.682672 
L 335.387748 273.961455 
L 335.970462 273.856567 
L 336.63642 273.590989 
L 337.302378 273.547365 
L 337.801846 273.702548 
L 338.467804 274.088472 
L 339.217007 274.282877 
L 339.79972 274.166842 
L 341.131636 273.888089 
L 342.047329 274.386866 
L 342.463552 274.702366 
L 343.212755 274.932538 
L 343.795469 274.820495 
L 344.794406 274.63717 
L 345.460364 274.980008 
L 345.959832 275.507214 
L 347.125259 276.405732 
L 347.624727 276.384958 
L 348.790154 276.240788 
L 349.372867 276.636319 
L 349.872336 277.280295 
L 351.204252 278.574288 
L 351.537231 278.607837 
L 352.785902 278.464988 
L 353.202126 278.700396 
L 353.61835 279.124913 
L 354.034573 279.768947 
L 355.283245 281.073626 
L 355.865958 281.132851 
L 356.94814 281.136494 
L 357.281119 281.317802 
L 358.779524 283.040908 
L 359.611972 283.55796 
L 360.27793 283.527989 
L 361.276867 283.462012 
L 362.192559 283.941424 
L 362.608783 284.311865 
L 363.77421 284.935431 
L 364.440168 284.904279 
L 365.855329 284.749956 
L 366.771021 285.191426 
L 367.187245 285.526523 
L 368.352671 286.071096 
L 369.018629 286.010429 
L 370.184056 285.90472 
L 370.683524 286.101633 
L 371.266238 286.547156 
L 372.598154 287.324092 
L 373.264112 287.239204 
L 374.179804 287.153461 
L 374.679273 287.349972 
L 375.428476 288.025666 
L 376.510657 288.693882 
L 376.926881 288.681203 
L 378.425287 288.518981 
L 378.924755 288.787716 
L 379.340979 289.149767 
L 380.256671 289.591287 
L 380.75614 289.50674 
L 381.505343 289.112413 
L 382.171301 289.005125 
L 382.587524 289.156873 
L 383.336727 289.763682 
L 384.169175 290.140988 
L 384.668643 290.034059 
L 385.334601 289.698589 
L 385.66758 289.588699 
L 386.000559 289.608879 
L 386.416783 289.825668 
L 386.833007 290.201903 
L 387.249231 290.711917 
L 388.081678 291.271663 
L 388.414657 291.2896 
L 389.913063 290.928874 
L 390.495776 291.352924 
L 390.912 291.923126 
L 392.160671 293.134901 
L 392.66014 293.163206 
L 393.575832 292.997294 
L 394.075301 293.160143 
L 394.491524 293.486794 
L 394.907748 294.025657 
L 396.239664 295.256151 
L 396.822378 295.303626 
L 398.071049 295.259882 
L 398.404028 295.406623 
L 398.487273 295.488 
L 398.487273 295.488 
" clip-path="url(#p690e8b6f85)" style="fill: none; stroke: #1f77b4; stroke-width: 1.5; stroke-linecap: square"/>
   </g>
   <g id="line2d_15">
    <path d="M 73.832727 174.572954 
L 74.248951 174.594009 
L 74.914909 174.042535 
L 75.913846 173.329503 
L 76.33007 173.426641 
L 76.663049 173.685481 
L 77.079273 174.196088 
L 77.994965 174.896759 
L 78.411189 174.830991 
L 78.827413 174.559813 
L 79.243636 174.125888 
L 80.076084 173.633372 
L 80.492308 173.678948 
L 80.991776 173.923828 
L 81.408 174.215755 
L 82.073958 174.402491 
L 82.490182 174.300089 
L 83.822098 173.346224 
L 84.571301 173.146149 
L 86.569175 173.005141 
L 87.318378 172.646265 
L 87.734601 172.424694 
L 90.148699 171.491231 
L 90.981147 171.013102 
L 91.397371 170.722431 
L 92.229818 170.223623 
L 92.729287 169.863816 
L 93.228755 169.453063 
L 93.728224 169.043419 
L 94.144448 168.591713 
L 94.643916 168.109883 
L 95.06014 167.611526 
L 95.892587 166.753326 
L 96.308811 166.267386 
L 97.141259 165.477801 
L 97.557483 165.03073 
L 97.973706 164.634302 
L 98.38993 164.128156 
L 98.889399 163.55139 
L 99.305622 162.903035 
L 99.805091 162.216693 
L 100.054825 161.830637 
L 101.71972 160.079618 
L 102.302434 159.673578 
L 104.133818 156.811468 
L 104.466797 156.134297 
L 105.38249 155.182314 
L 106.714406 154.546156 
L 107.047385 154.174 
L 107.380364 153.665204 
L 107.796587 152.921908 
L 108.129566 152.140105 
L 109.128503 150.838609 
L 109.627972 150.74999 
L 110.876643 150.990283 
L 111.209622 150.803951 
L 111.625846 150.397332 
L 112.04207 149.876064 
L 112.291804 149.532709 
L 113.041007 148.968618 
L 113.373986 149.045705 
L 113.706965 149.295473 
L 114.123189 149.737879 
L 114.372923 150.053998 
L 115.205371 150.699674 
L 115.704839 150.671748 
L 116.537287 150.33204 
L 116.95351 150.343255 
L 117.28649 150.527531 
L 117.619469 150.85587 
L 118.118937 151.476702 
L 118.368671 151.855594 
L 119.450853 152.900294 
L 120.116811 152.964988 
L 120.949259 153.046974 
L 121.448727 153.305419 
L 121.948196 153.774514 
L 123.446601 154.829414 
L 124.279049 154.843972 
L 125.194741 154.912942 
L 127.192615 155.203437 
L 127.858573 154.950561 
L 128.358042 154.686916 
L 129.689958 154.062194 
L 130.522406 153.510957 
L 130.938629 153.159068 
L 131.354853 152.676419 
L 131.854322 152.142676 
L 132.270545 151.588712 
L 132.770014 151.035696 
L 133.102993 150.567763 
L 133.685706 149.947834 
L 134.10193 149.400196 
L 134.601399 148.839384 
L 135.017622 148.257741 
L 135.517091 147.645798 
L 135.933315 146.993466 
L 136.432783 146.296916 
L 136.765762 145.672981 
L 137.348476 144.837329 
L 137.681455 144.242448 
L 139.762573 141.797143 
L 140.178797 141.117998 
L 140.678266 140.303559 
L 140.928 139.796235 
L 141.260979 139.154022 
L 141.510713 138.661512 
L 142.759385 137.077918 
L 143.675077 136.424479 
L 144.008056 136.082414 
L 144.507524 135.306784 
L 144.923748 134.578243 
L 145.173483 134.070921 
L 146.338909 132.511547 
L 146.838378 132.42797 
L 148.003804 132.481529 
L 148.836252 131.722904 
L 149.169231 131.301501 
L 149.418965 130.989679 
L 150.084923 130.572704 
L 150.417902 130.636082 
L 152.249287 132.182138 
L 152.66551 132.113124 
L 153.997427 131.754946 
L 154.330406 131.970052 
L 154.663385 132.336675 
L 155.079608 133.000785 
L 156.16179 134.160332 
L 156.661259 134.226204 
L 158.07642 134.122318 
L 159.241846 135.308299 
L 159.49158 135.589857 
L 160.240783 136.030606 
L 160.823497 135.960405 
L 161.905678 135.825588 
L 162.321902 135.979106 
L 163.071105 136.52477 
L 163.903552 136.890654 
L 164.403021 136.826597 
L 165.818182 136.112874 
L 168.06579 135.401218 
L 168.565259 134.943647 
L 168.981483 134.537274 
L 169.397706 134.043508 
L 170.230154 133.250163 
L 170.646378 132.836117 
L 171.478825 132.172493 
L 171.895049 131.785513 
L 172.477762 131.261217 
L 172.977231 130.817718 
L 173.393455 130.334908 
L 173.892923 129.818078 
L 174.309147 129.290858 
L 176.223776 127.709123 
L 176.889734 127.312373 
L 177.389203 126.873322 
L 177.805427 126.450718 
L 178.22165 125.895555 
L 179.636811 124.662024 
L 180.053035 124.527814 
L 180.885483 124.320082 
L 181.967664 123.336654 
L 182.716867 122.487422 
L 182.966601 122.255614 
L 183.632559 121.98923 
L 184.298517 122.067628 
L 184.964476 122.042886 
L 185.380699 121.83923 
L 185.796923 121.495614 
L 186.213147 121.019154 
L 187.045594 120.475001 
L 187.461818 120.531291 
L 187.878042 120.759854 
L 188.294266 121.114193 
L 189.043469 121.445722 
L 189.459692 121.388038 
L 190.541874 120.816091 
L 190.958098 120.809612 
L 191.540811 121.197632 
L 191.957035 121.730892 
L 193.039217 122.649616 
L 193.372196 122.659296 
L 194.953846 122.14387 
L 195.37007 122.376362 
L 195.786294 122.765774 
L 196.119273 123.134749 
L 196.369007 123.406122 
L 197.034965 123.779124 
L 197.451189 123.706504 
L 197.950657 123.440151 
L 198.366881 123.151691 
L 198.949594 123.01632 
L 199.449063 123.183888 
L 200.031776 123.636087 
L 200.947469 124.136702 
L 201.363692 124.049213 
L 201.863161 123.75012 
L 202.529119 123.196747 
L 202.862098 122.97248 
L 203.195077 122.806328 
L 203.94428 122.767966 
L 204.859972 122.737309 
L 205.276196 122.555167 
L 207.773538 119.980181 
L 209.771413 118.862879 
L 210.104392 118.559158 
L 210.520615 118.063043 
L 211.020084 117.531418 
L 211.269818 117.237469 
L 212.601734 116.239491 
L 213.101203 116.056928 
L 213.767161 115.817445 
L 215.598545 114.269712 
L 215.931524 113.999852 
L 216.264503 113.794844 
L 216.597483 113.640119 
L 218.345622 113.175062 
L 218.928336 112.707181 
L 219.594294 112.115311 
L 219.927273 111.875356 
L 220.260252 111.681714 
L 221.092699 111.567967 
L 221.925147 111.440319 
L 222.341371 111.236335 
L 222.840839 110.823176 
L 224.172755 109.995773 
L 224.672224 110.030586 
L 226.00414 110.209845 
L 227.003077 109.565066 
L 227.835524 109.179165 
L 228.251748 109.240655 
L 228.751217 109.496083 
L 229.167441 109.815622 
L 229.916643 110.064377 
L 230.499357 109.845705 
L 230.832336 109.600817 
L 231.248559 109.243709 
L 231.914517 109.007411 
L 232.330741 109.116752 
L 232.66372 109.334379 
L 233.079944 109.72759 
L 233.912392 110.164533 
L 234.328615 110.082271 
L 234.828084 109.772498 
L 235.244308 109.381026 
L 235.99351 109.025233 
L 236.409734 109.120627 
L 236.909203 109.428178 
L 238.074629 110.085998 
L 238.490853 109.969535 
L 240.072503 108.556126 
L 240.655217 108.448556 
L 241.321175 108.623612 
L 242.070378 108.721108 
L 242.403357 108.608059 
L 243.652028 107.308132 
L 243.901762 106.992897 
L 244.817455 106.288357 
L 245.566657 106.196177 
L 246.399105 106.104857 
L 247.314797 105.452922 
L 247.731021 104.946926 
L 249.146182 103.817415 
L 249.562406 103.722268 
L 250.727832 103.545887 
L 251.310545 103.23915 
L 251.810014 102.779005 
L 252.475972 102.162654 
L 252.808951 101.911784 
L 253.14193 101.698093 
L 254.140867 101.497809 
L 254.89007 101.330186 
L 257.304168 99.79506 
L 259.468531 99.316989 
L 259.968 98.985877 
L 261.050182 98.5593 
L 261.632895 98.60541 
L 262.382098 98.755039 
L 262.964811 98.683269 
L 263.46428 98.465405 
L 263.963748 98.121776 
L 264.962685 97.722825 
L 265.628643 97.836191 
L 266.211357 98.02897 
L 266.62758 98.06534 
L 267.127049 97.91102 
L 268.292476 96.917328 
L 269.041678 96.547972 
L 269.541147 96.608765 
L 270.29035 96.914495 
L 270.873063 96.947338 
L 271.289287 96.767185 
L 271.70551 96.439608 
L 272.121734 95.966049 
L 273.120671 95.274635 
L 273.62014 95.297562 
L 274.452587 95.590269 
L 274.868811 95.644661 
L 275.285035 95.513438 
L 275.618014 95.268584 
L 276.117483 94.692506 
L 277.532643 93.473829 
L 278.115357 93.487991 
L 278.864559 93.612769 
L 279.280783 93.535714 
L 280.196476 92.767167 
L 280.612699 92.208954 
L 281.694881 91.339107 
L 282.277594 91.302874 
L 283.60951 91.419012 
L 284.441958 90.848428 
L 284.858182 90.393361 
L 285.857119 89.721935 
L 286.439832 89.718126 
L 288.021483 89.891958 
L 288.437706 89.663875 
L 288.937175 89.207296 
L 290.352336 88.281914 
L 291.184783 88.305114 
L 291.767497 88.271245 
L 292.599944 87.756122 
L 293.016168 87.356714 
L 293.349147 87.007895 
L 293.682126 86.636146 
L 294.514573 86.230458 
L 295.014042 86.195132 
L 296.012979 86.11047 
L 296.429203 85.889009 
L 297.011916 85.51625 
L 297.42814 85.194548 
L 298.177343 84.948303 
L 298.760056 85.050429 
L 300.175217 85.351682 
L 300.674685 85.165103 
L 302.006601 84.772807 
L 302.50607 84.932975 
L 303.921231 85.377297 
L 304.337455 85.21033 
L 304.920168 84.852255 
L 305.336392 84.531845 
L 306.085594 84.309263 
L 306.751552 84.467238 
L 307.251021 84.65369 
L 307.833734 84.652411 
L 308.249958 84.449129 
L 308.999161 83.682533 
L 310.081343 82.89652 
L 310.497566 82.874634 
L 311.912727 83.001182 
L 312.82842 82.23439 
L 313.244643 81.688682 
L 314.24358 80.930543 
L 314.826294 80.919413 
L 316.074965 81.032658 
L 316.491189 80.83469 
L 317.240392 80.103224 
L 318.489063 79.207022 
L 319.071776 79.228319 
L 320.486937 79.400485 
L 321.06965 79.134891 
L 321.569119 78.72521 
L 322.81779 78.038237 
L 323.400503 78.109659 
L 324.982154 78.422998 
L 325.981091 77.81135 
L 327.146517 77.243007 
L 327.645986 77.27069 
L 329.227636 77.438745 
L 329.560615 77.270269 
L 330.143329 76.800886 
L 331.475245 75.99581 
L 332.141203 76.076515 
L 333.223385 76.184099 
L 334.139077 75.712238 
L 334.555301 75.395587 
L 335.387748 75.11466 
L 335.970462 75.218408 
L 336.63642 75.484273 
L 337.302378 75.529376 
L 337.801846 75.375035 
L 338.467804 74.988639 
L 339.300252 74.792547 
L 340.049455 75.004129 
L 340.965147 75.203644 
L 341.464615 75.06671 
L 342.297063 74.497341 
L 343.12951 74.139351 
L 343.712224 74.224468 
L 344.794406 74.425832 
L 345.460364 74.083724 
L 345.959832 73.557223 
L 347.125259 72.65645 
L 347.624727 72.674924 
L 348.790154 72.816052 
L 349.372867 72.420506 
L 349.872336 71.776781 
L 351.204252 70.481923 
L 351.537231 70.447983 
L 352.785902 70.590389 
L 353.202126 70.355017 
L 353.61835 69.930452 
L 354.034573 69.286286 
L 355.283245 67.98259 
L 355.865958 67.925008 
L 356.94814 67.923342 
L 357.281119 67.741749 
L 358.779524 66.01487 
L 359.611972 65.498829 
L 360.27793 65.530582 
L 361.276867 65.59577 
L 362.192559 65.111447 
L 362.608783 64.738998 
L 363.77421 64.116271 
L 364.440168 64.149453 
L 365.855329 64.301636 
L 366.771021 63.857698 
L 367.187245 63.523035 
L 368.352671 62.982692 
L 369.018629 63.044602 
L 370.184056 63.150157 
L 370.683524 62.953774 
L 371.266238 62.509821 
L 372.598154 61.736375 
L 373.264112 61.821885 
L 374.179804 61.9093 
L 374.679273 61.714109 
L 375.51172 60.978121 
L 376.510657 60.369654 
L 376.926881 60.38082 
L 378.425287 60.543517 
L 378.924755 60.27569 
L 379.340979 59.913571 
L 380.256671 59.468207 
L 380.75614 59.550212 
L 381.505343 59.942712 
L 382.171301 60.051814 
L 382.587524 59.901813 
L 383.336727 59.2969 
L 384.169175 58.917281 
L 384.668643 59.022244 
L 385.334601 59.356368 
L 385.66758 59.466605 
L 386.000559 59.447579 
L 386.416783 59.232272 
L 386.833007 58.857255 
L 387.249231 58.347738 
L 388.081678 57.786405 
L 388.414657 57.767445 
L 389.913063 58.12775 
L 390.495776 57.704699 
L 390.912 57.134668 
L 392.160671 55.921341 
L 392.66014 55.893078 
L 393.575832 56.060596 
L 394.075301 55.898232 
L 394.491524 55.571161 
L 394.907748 55.030997 
L 396.239664 53.797556 
L 396.822378 53.751326 
L 398.071049 53.797359 
L 398.404028 53.649848 
L 398.487273 53.568 
L 398.487273 53.568 
" clip-path="url(#p690e8b6f85)" style="fill: none; stroke: #ff7f0e; stroke-width: 1.5; stroke-linecap: square"/>
   </g>
   <g id="line2d_16">
    <path d="M 73.832727 174.572954 
L 137.681455 174.655478 
L 149.085986 174.567814 
L 164.56951 174.565088 
L 185.547189 174.560224 
L 208.938965 174.58426 
L 222.840839 174.550581 
L 281.611636 174.526306 
L 309.248895 174.507184 
L 398.487273 174.483046 
L 398.487273 174.483046 
" clip-path="url(#p690e8b6f85)" style="fill: none; stroke: #2ca02c; stroke-width: 1.5; stroke-linecap: square"/>
   </g>
   <g id="patch_3">
    <path d="M 57.6 307.584 
L 57.6 41.472 
" style="fill: none; stroke: #000000; stroke-width: 0.8; stroke-linejoin: miter; stroke-linecap: square"/>
   </g>
   <g id="patch_4">
    <path d="M 414.72 307.584 
L 414.72 41.472 
" style="fill: none; stroke: #000000; stroke-width: 0.8; stroke-linejoin: miter; stroke-linecap: square"/>
   </g>
   <g id="patch_5">
    <path d="M 57.6 307.584 
L 414.72 307.584 
" style="fill: none; stroke: #000000; stroke-width: 0.8; stroke-linejoin: miter; stroke-linecap: square"/>
   </g>
   <g id="patch_6">
    <path d="M 57.6 41.472 
L 414.72 41.472 
" style="fill: none; stroke: #000000; stroke-width: 0.8; stroke-linejoin: miter; stroke-linecap: square"/>
   </g>
   <g id="legend_1">
    <g id="patch_7">
     <path d="M 64.6 93.506375 
L 141.75 93.506375 
Q 143.75 93.506375 143.75 91.506375 
L 143.75 48.472 
Q 143.75 46.472 141.75 46.472 
L 64.6 46.472 
Q 62.6 46.472 62.6 48.472 
L 62.6 91.506375 
Q 62.6 93.506375 64.6 93.506375 
z
" style="fill: #ffffff; opacity: 0.8; stroke: #cccccc; stroke-linejoin: miter"/>
    </g>
    <g id="line2d_17">
     <path d="M 66.6 54.570438 
L 76.6 54.570438 
L 86.6 54.570438 
" style="fill: none; stroke: #1f77b4; stroke-width: 1.5; stroke-linecap: square"/>
    </g>
    <g id="text_16">
     <!-- quantum -->
     <g transform="translate(94.6 58.070438) scale(0.1 -0.1)">
      <defs>
       <path id="DejaVuSans-71" d="M 947 1747 
Q 947 1113 1208 752 
Q 1469 391 1925 391 
Q 2381 391 2643 752 
Q 2906 1113 2906 1747 
Q 2906 2381 2643 2742 
Q 2381 3103 1925 3103 
Q 1469 3103 1208 2742 
Q 947 2381 947 1747 
z
M 2906 525 
Q 2725 213 2448 61 
Q 2172 -91 1784 -91 
Q 1150 -91 751 415 
Q 353 922 353 1747 
Q 353 2572 751 3078 
Q 1150 3584 1784 3584 
Q 2172 3584 2448 3432 
Q 2725 3281 2906 2969 
L 2906 3500 
L 3481 3500 
L 3481 -1331 
L 2906 -1331 
L 2906 525 
z
" transform="scale(0.015625)"/>
       <path id="DejaVuSans-75" d="M 544 1381 
L 544 3500 
L 1119 3500 
L 1119 1403 
Q 1119 906 1312 657 
Q 1506 409 1894 409 
Q 2359 409 2629 706 
Q 2900 1003 2900 1516 
L 2900 3500 
L 3475 3500 
L 3475 0 
L 2900 0 
L 2900 538 
Q 2691 219 2414 64 
Q 2138 -91 1772 -91 
Q 1169 -91 856 284 
Q 544 659 544 1381 
z
M 1991 3584 
L 1991 3584 
z
" transform="scale(0.015625)"/>
       <path id="DejaVuSans-6d" d="M 3328 2828 
Q 3544 3216 3844 3400 
Q 4144 3584 4550 3584 
Q 5097 3584 5394 3201 
Q 5691 2819 5691 2113 
L 5691 0 
L 5113 0 
L 5113 2094 
Q 5113 2597 4934 2840 
Q 4756 3084 4391 3084 
Q 3944 3084 3684 2787 
Q 3425 2491 3425 1978 
L 3425 0 
L 2847 0 
L 2847 2094 
Q 2847 2600 2669 2842 
Q 2491 3084 2119 3084 
Q 1678 3084 1418 2786 
Q 1159 2488 1159 1978 
L 1159 0 
L 581 0 
L 581 3500 
L 1159 3500 
L 1159 2956 
Q 1356 3278 1631 3431 
Q 1906 3584 2284 3584 
Q 2666 3584 2933 3390 
Q 3200 3197 3328 2828 
z
" transform="scale(0.015625)"/>
      </defs>
      <use xlink:href="#DejaVuSans-71"/>
      <use xlink:href="#DejaVuSans-75" x="63.476562"/>
      <use xlink:href="#DejaVuSans-61" x="126.855469"/>
      <use xlink:href="#DejaVuSans-6e" x="188.134766"/>
      <use xlink:href="#DejaVuSans-74" x="251.513672"/>
      <use xlink:href="#DejaVuSans-75" x="290.722656"/>
      <use xlink:href="#DejaVuSans-6d" x="354.101562"/>
     </g>
    </g>
    <g id="line2d_18">
     <path d="M 66.6 69.248563 
L 76.6 69.248563 
L 86.6 69.248563 
" style="fill: none; stroke: #ff7f0e; stroke-width: 1.5; stroke-linecap: square"/>
    </g>
    <g id="text_17">
     <!-- classical -->
     <g transform="translate(94.6 72.748563) scale(0.1 -0.1)">
      <defs>
       <path id="DejaVuSans-6c" d="M 603 4863 
L 1178 4863 
L 1178 0 
L 603 0 
L 603 4863 
z
" transform="scale(0.015625)"/>
      </defs>
      <use xlink:href="#DejaVuSans-63"/>
      <use xlink:href="#DejaVuSans-6c" x="54.980469"/>
      <use xlink:href="#DejaVuSans-61" x="82.763672"/>
      <use xlink:href="#DejaVuSans-73" x="144.042969"/>
      <use xlink:href="#DejaVuSans-73" x="196.142578"/>
      <use xlink:href="#DejaVuSans-69" x="248.242188"/>
      <use xlink:href="#DejaVuSans-63" x="276.025391"/>
      <use xlink:href="#DejaVuSans-61" x="331.005859"/>
      <use xlink:href="#DejaVuSans-6c" x="392.285156"/>
     </g>
    </g>
    <g id="line2d_19">
     <path d="M 66.6 83.926688 
L 76.6 83.926688 
L 86.6 83.926688 
" style="fill: none; stroke: #2ca02c; stroke-width: 1.5; stroke-linecap: square"/>
    </g>
    <g id="text_18">
     <!-- total -->
     <g transform="translate(94.6 87.426688) scale(0.1 -0.1)">
      <defs>
       <path id="DejaVuSans-6f" d="M 1959 3097 
Q 1497 3097 1228 2736 
Q 959 2375 959 1747 
Q 959 1119 1226 758 
Q 1494 397 1959 397 
Q 2419 397 2687 759 
Q 2956 1122 2956 1747 
Q 2956 2369 2687 2733 
Q 2419 3097 1959 3097 
z
M 1959 3584 
Q 2709 3584 3137 3096 
Q 3566 2609 3566 1747 
Q 3566 888 3137 398 
Q 2709 -91 1959 -91 
Q 1206 -91 779 398 
Q 353 888 353 1747 
Q 353 2609 779 3096 
Q 1206 3584 1959 3584 
z
" transform="scale(0.015625)"/>
      </defs>
      <use xlink:href="#DejaVuSans-74"/>
      <use xlink:href="#DejaVuSans-6f" x="39.208984"/>
      <use xlink:href="#DejaVuSans-74" x="100.390625"/>
      <use xlink:href="#DejaVuSans-61" x="139.599609"/>
      <use xlink:href="#DejaVuSans-6c" x="200.878906"/>
     </g>
    </g>
   </g>
  </g>
 </g>
 <defs>
  <clipPath id="p690e8b6f85">
   <rect x="57.6" y="41.472" width="357.12" height="266.112"/>
  </clipPath>
 </defs>
</svg>
