<?xml version="1.0" encoding="utf-8" standalone="no"?>
<!DOCTYPE svg PUBLIC "-//W3C//DTD SVG 1.1//EN"
  "http://www.w3.org/Graphics/SVG/1.1/DTD/svg11.dtd">
<svg xmlns:xlink="http://www.w3.org/1999/xlink" width="460.8pt" height="345.6pt" viewBox="0 0 460.8 345.6" xmlns="http://www.w3.org/2000/svg" version="1.1">
 <metadata>
  <rdf:RDF xmlns:dc="http://purl.org/dc/elements/1.1/" xmlns:cc="http://creativecommons.org/ns#" xmlns:rdf="http://www.w3.org/1999/02/22-rdf-syntax-ns#">
   <cc:Work>
    <dc:type rdf:resource="http://purl.org/dc/dcmitype/StillImage"/>
    <dc:date>2024-07-19T09:12:43.664181</dc:date>
    <dc:format>image/svg+xml</dc:format>
    <dc:creator>
     <cc:Agent>
      <dc:title>Matplotlib v3.9.1, https://matplotlib.org/</dc:title>
     </cc:Agent>
    </dc:creator>
   </cc:Work>
  </rdf:RDF>
 </metadata>
 <defs>
  <style type="text/css">*{stroke-linejoin: round; stroke-linecap: butt}</style>
 </defs>
 <g id="figure_1">
  <g id="patch_1">
   <path d="M 0 345.6 
L 460.8 345.6 
L 460.8 0 
L 0 0 
z
" style="fill: #ffffff"/>
  </g>
  <g id="axes_1">
   <g id="patch_2">
    <path d="M 57.6 307.584 
L 414.72 307.584 
L 414.72 41.472 
L 57.6 41.472 
z
" style="fill: #ffffff"/>
   </g>
   <g id="matplotlib.axis_1">
    <g id="xtick_1">
     <g id="line2d_1">
      <defs>
       <path id="m2572521096" d="M 0 0 
L 0 3.5 
" style="stroke: #000000; stroke-width: 0.8"/>
      </defs>
      <g>
       <use xlink:href="#m2572521096" x="73.832727" y="307.584" style="stroke: #000000; stroke-width: 0.8"/>
      </g>
     </g>
     <g id="text_1">
      <!-- 0.0 -->
      <g transform="translate(65.881165 322.182437) scale(0.1 -0.1)">
       <defs>
        <path id="DejaVuSans-30" d="M 2034 4250 
Q 1547 4250 1301 3770 
Q 1056 3291 1056 2328 
Q 1056 1369 1301 889 
Q 1547 409 2034 409 
Q 2525 409 2770 889 
Q 3016 1369 3016 2328 
Q 3016 3291 2770 3770 
Q 2525 4250 2034 4250 
z
M 2034 4750 
Q 2819 4750 3233 4129 
Q 3647 3509 3647 2328 
Q 3647 1150 3233 529 
Q 2819 -91 2034 -91 
Q 1250 -91 836 529 
Q 422 1150 422 2328 
Q 422 3509 836 4129 
Q 1250 4750 2034 4750 
z
" transform="scale(0.015625)"/>
        <path id="DejaVuSans-2e" d="M 684 794 
L 1344 794 
L 1344 0 
L 684 0 
L 684 794 
z
" transform="scale(0.015625)"/>
       </defs>
       <use xlink:href="#DejaVuSans-30"/>
       <use xlink:href="#DejaVuSans-2e" x="63.623047"/>
       <use xlink:href="#DejaVuSans-30" x="95.410156"/>
      </g>
     </g>
    </g>
    <g id="xtick_2">
     <g id="line2d_2">
      <g>
       <use xlink:href="#m2572521096" x="137.700852" y="307.584" style="stroke: #000000; stroke-width: 0.8"/>
      </g>
     </g>
     <g id="text_2">
      <!-- 0.2 -->
      <g transform="translate(129.749289 322.182437) scale(0.1 -0.1)">
       <defs>
        <path id="DejaVuSans-32" d="M 1228 531 
L 3431 531 
L 3431 0 
L 469 0 
L 469 531 
Q 828 903 1448 1529 
Q 2069 2156 2228 2338 
Q 2531 2678 2651 2914 
Q 2772 3150 2772 3378 
Q 2772 3750 2511 3984 
Q 2250 4219 1831 4219 
Q 1534 4219 1204 4116 
Q 875 4013 500 3803 
L 500 4441 
Q 881 4594 1212 4672 
Q 1544 4750 1819 4750 
Q 2544 4750 2975 4387 
Q 3406 4025 3406 3419 
Q 3406 3131 3298 2873 
Q 3191 2616 2906 2266 
Q 2828 2175 2409 1742 
Q 1991 1309 1228 531 
z
" transform="scale(0.015625)"/>
       </defs>
       <use xlink:href="#DejaVuSans-30"/>
       <use xlink:href="#DejaVuSans-2e" x="63.623047"/>
       <use xlink:href="#DejaVuSans-32" x="95.410156"/>
      </g>
     </g>
    </g>
    <g id="xtick_3">
     <g id="line2d_3">
      <g>
       <use xlink:href="#m2572521096" x="201.568976" y="307.584" style="stroke: #000000; stroke-width: 0.8"/>
      </g>
     </g>
     <g id="text_3">
      <!-- 0.4 -->
      <g transform="translate(193.617413 322.182437) scale(0.1 -0.1)">
       <defs>
        <path id="DejaVuSans-34" d="M 2419 4116 
L 825 1625 
L 2419 1625 
L 2419 4116 
z
M 2253 4666 
L 3047 4666 
L 3047 1625 
L 3713 1625 
L 3713 1100 
L 3047 1100 
L 3047 0 
L 2419 0 
L 2419 1100 
L 313 1100 
L 313 1709 
L 2253 4666 
z
" transform="scale(0.015625)"/>
       </defs>
       <use xlink:href="#DejaVuSans-30"/>
       <use xlink:href="#DejaVuSans-2e" x="63.623047"/>
       <use xlink:href="#DejaVuSans-34" x="95.410156"/>
      </g>
     </g>
    </g>
    <g id="xtick_4">
     <g id="line2d_4">
      <g>
       <use xlink:href="#m2572521096" x="265.4371" y="307.584" style="stroke: #000000; stroke-width: 0.8"/>
      </g>
     </g>
     <g id="text_4">
      <!-- 0.6 -->
      <g transform="translate(257.485538 322.182437) scale(0.1 -0.1)">
       <defs>
        <path id="DejaVuSans-36" d="M 2113 2584 
Q 1688 2584 1439 2293 
Q 1191 2003 1191 1497 
Q 1191 994 1439 701 
Q 1688 409 2113 409 
Q 2538 409 2786 701 
Q 3034 994 3034 1497 
Q 3034 2003 2786 2293 
Q 2538 2584 2113 2584 
z
M 3366 4563 
L 3366 3988 
Q 3128 4100 2886 4159 
Q 2644 4219 2406 4219 
Q 1781 4219 1451 3797 
Q 1122 3375 1075 2522 
Q 1259 2794 1537 2939 
Q 1816 3084 2150 3084 
Q 2853 3084 3261 2657 
Q 3669 2231 3669 1497 
Q 3669 778 3244 343 
Q 2819 -91 2113 -91 
Q 1303 -91 875 529 
Q 447 1150 447 2328 
Q 447 3434 972 4092 
Q 1497 4750 2381 4750 
Q 2619 4750 2861 4703 
Q 3103 4656 3366 4563 
z
" transform="scale(0.015625)"/>
       </defs>
       <use xlink:href="#DejaVuSans-30"/>
       <use xlink:href="#DejaVuSans-2e" x="63.623047"/>
       <use xlink:href="#DejaVuSans-36" x="95.410156"/>
      </g>
     </g>
    </g>
    <g id="xtick_5">
     <g id="line2d_5">
      <g>
       <use xlink:href="#m2572521096" x="329.305225" y="307.584" style="stroke: #000000; stroke-width: 0.8"/>
      </g>
     </g>
     <g id="text_5">
      <!-- 0.8 -->
      <g transform="translate(321.353662 322.182437) scale(0.1 -0.1)">
       <defs>
        <path id="DejaVuSans-38" d="M 2034 2216 
Q 1584 2216 1326 1975 
Q 1069 1734 1069 1313 
Q 1069 891 1326 650 
Q 1584 409 2034 409 
Q 2484 409 2743 651 
Q 3003 894 3003 1313 
Q 3003 1734 2745 1975 
Q 2488 2216 2034 2216 
z
M 1403 2484 
Q 997 2584 770 2862 
Q 544 3141 544 3541 
Q 544 4100 942 4425 
Q 1341 4750 2034 4750 
Q 2731 4750 3128 4425 
Q 3525 4100 3525 3541 
Q 3525 3141 3298 2862 
Q 3072 2584 2669 2484 
Q 3125 2378 3379 2068 
Q 3634 1759 3634 1313 
Q 3634 634 3220 271 
Q 2806 -91 2034 -91 
Q 1263 -91 848 271 
Q 434 634 434 1313 
Q 434 1759 690 2068 
Q 947 2378 1403 2484 
z
M 1172 3481 
Q 1172 3119 1398 2916 
Q 1625 2713 2034 2713 
Q 2441 2713 2670 2916 
Q 2900 3119 2900 3481 
Q 2900 3844 2670 4047 
Q 2441 4250 2034 4250 
Q 1625 4250 1398 4047 
Q 1172 3844 1172 3481 
z
" transform="scale(0.015625)"/>
       </defs>
       <use xlink:href="#DejaVuSans-30"/>
       <use xlink:href="#DejaVuSans-2e" x="63.623047"/>
       <use xlink:href="#DejaVuSans-38" x="95.410156"/>
      </g>
     </g>
    </g>
    <g id="xtick_6">
     <g id="line2d_6">
      <g>
       <use xlink:href="#m2572521096" x="393.173349" y="307.584" style="stroke: #000000; stroke-width: 0.8"/>
      </g>
     </g>
     <g id="text_6">
      <!-- 1.0 -->
      <g transform="translate(385.221786 322.182437) scale(0.1 -0.1)">
       <defs>
        <path id="DejaVuSans-31" d="M 794 531 
L 1825 531 
L 1825 4091 
L 703 3866 
L 703 4441 
L 1819 4666 
L 2450 4666 
L 2450 531 
L 3481 531 
L 3481 0 
L 794 0 
L 794 531 
z
" transform="scale(0.015625)"/>
       </defs>
       <use xlink:href="#DejaVuSans-31"/>
       <use xlink:href="#DejaVuSans-2e" x="63.623047"/>
       <use xlink:href="#DejaVuSans-30" x="95.410156"/>
      </g>
     </g>
    </g>
    <g id="text_7">
     <!-- t(ps) -->
     <g transform="translate(224.519375 335.860562) scale(0.1 -0.1)">
      <defs>
       <path id="DejaVuSans-74" d="M 1172 4494 
L 1172 3500 
L 2356 3500 
L 2356 3053 
L 1172 3053 
L 1172 1153 
Q 1172 725 1289 603 
Q 1406 481 1766 481 
L 2356 481 
L 2356 0 
L 1766 0 
Q 1100 0 847 248 
Q 594 497 594 1153 
L 594 3053 
L 172 3053 
L 172 3500 
L 594 3500 
L 594 4494 
L 1172 4494 
z
" transform="scale(0.015625)"/>
       <path id="DejaVuSans-28" d="M 1984 4856 
Q 1566 4138 1362 3434 
Q 1159 2731 1159 2009 
Q 1159 1288 1364 580 
Q 1569 -128 1984 -844 
L 1484 -844 
Q 1016 -109 783 600 
Q 550 1309 550 2009 
Q 550 2706 781 3412 
Q 1013 4119 1484 4856 
L 1984 4856 
z
" transform="scale(0.015625)"/>
       <path id="DejaVuSans-70" d="M 1159 525 
L 1159 -1331 
L 581 -1331 
L 581 3500 
L 1159 3500 
L 1159 2969 
Q 1341 3281 1617 3432 
Q 1894 3584 2278 3584 
Q 2916 3584 3314 3078 
Q 3713 2572 3713 1747 
Q 3713 922 3314 415 
Q 2916 -91 2278 -91 
Q 1894 -91 1617 61 
Q 1341 213 1159 525 
z
M 3116 1747 
Q 3116 2381 2855 2742 
Q 2594 3103 2138 3103 
Q 1681 3103 1420 2742 
Q 1159 2381 1159 1747 
Q 1159 1113 1420 752 
Q 1681 391 2138 391 
Q 2594 391 2855 752 
Q 3116 1113 3116 1747 
z
" transform="scale(0.015625)"/>
       <path id="DejaVuSans-73" d="M 2834 3397 
L 2834 2853 
Q 2591 2978 2328 3040 
Q 2066 3103 1784 3103 
Q 1356 3103 1142 2972 
Q 928 2841 928 2578 
Q 928 2378 1081 2264 
Q 1234 2150 1697 2047 
L 1894 2003 
Q 2506 1872 2764 1633 
Q 3022 1394 3022 966 
Q 3022 478 2636 193 
Q 2250 -91 1575 -91 
Q 1294 -91 989 -36 
Q 684 19 347 128 
L 347 722 
Q 666 556 975 473 
Q 1284 391 1588 391 
Q 1994 391 2212 530 
Q 2431 669 2431 922 
Q 2431 1156 2273 1281 
Q 2116 1406 1581 1522 
L 1381 1569 
Q 847 1681 609 1914 
Q 372 2147 372 2553 
Q 372 3047 722 3315 
Q 1072 3584 1716 3584 
Q 2034 3584 2315 3537 
Q 2597 3491 2834 3397 
z
" transform="scale(0.015625)"/>
       <path id="DejaVuSans-29" d="M 513 4856 
L 1013 4856 
Q 1481 4119 1714 3412 
Q 1947 2706 1947 2009 
Q 1947 1309 1714 600 
Q 1481 -109 1013 -844 
L 513 -844 
Q 928 -128 1133 580 
Q 1338 1288 1338 2009 
Q 1338 2731 1133 3434 
Q 928 4138 513 4856 
z
" transform="scale(0.015625)"/>
      </defs>
      <use xlink:href="#DejaVuSans-74"/>
      <use xlink:href="#DejaVuSans-28" x="39.208984"/>
      <use xlink:href="#DejaVuSans-70" x="78.222656"/>
      <use xlink:href="#DejaVuSans-73" x="141.699219"/>
      <use xlink:href="#DejaVuSans-29" x="193.798828"/>
     </g>
    </g>
   </g>
   <g id="matplotlib.axis_2">
    <g id="ytick_1">
     <g id="line2d_7">
      <defs>
       <path id="m0ce19b5507" d="M 0 0 
L -3.5 0 
" style="stroke: #000000; stroke-width: 0.8"/>
      </defs>
      <g>
       <use xlink:href="#m0ce19b5507" x="57.6" y="307.584" style="stroke: #000000; stroke-width: 0.8"/>
      </g>
     </g>
     <g id="text_8">
      <!-- 0.0 -->
      <g transform="translate(34.696875 311.383219) scale(0.1 -0.1)">
       <use xlink:href="#DejaVuSans-30"/>
       <use xlink:href="#DejaVuSans-2e" x="63.623047"/>
       <use xlink:href="#DejaVuSans-30" x="95.410156"/>
      </g>
     </g>
    </g>
    <g id="ytick_2">
     <g id="line2d_8">
      <g>
       <use xlink:href="#m0ce19b5507" x="57.6" y="254.3616" style="stroke: #000000; stroke-width: 0.8"/>
      </g>
     </g>
     <g id="text_9">
      <!-- 0.2 -->
      <g transform="translate(34.696875 258.160819) scale(0.1 -0.1)">
       <use xlink:href="#DejaVuSans-30"/>
       <use xlink:href="#DejaVuSans-2e" x="63.623047"/>
       <use xlink:href="#DejaVuSans-32" x="95.410156"/>
      </g>
     </g>
    </g>
    <g id="ytick_3">
     <g id="line2d_9">
      <g>
       <use xlink:href="#m0ce19b5507" x="57.6" y="201.1392" style="stroke: #000000; stroke-width: 0.8"/>
      </g>
     </g>
     <g id="text_10">
      <!-- 0.4 -->
      <g transform="translate(34.696875 204.938419) scale(0.1 -0.1)">
       <use xlink:href="#DejaVuSans-30"/>
       <use xlink:href="#DejaVuSans-2e" x="63.623047"/>
       <use xlink:href="#DejaVuSans-34" x="95.410156"/>
      </g>
     </g>
    </g>
    <g id="ytick_4">
     <g id="line2d_10">
      <g>
       <use xlink:href="#m0ce19b5507" x="57.6" y="147.9168" style="stroke: #000000; stroke-width: 0.8"/>
      </g>
     </g>
     <g id="text_11">
      <!-- 0.6 -->
      <g transform="translate(34.696875 151.716019) scale(0.1 -0.1)">
       <use xlink:href="#DejaVuSans-30"/>
       <use xlink:href="#DejaVuSans-2e" x="63.623047"/>
       <use xlink:href="#DejaVuSans-36" x="95.410156"/>
      </g>
     </g>
    </g>
    <g id="ytick_5">
     <g id="line2d_11">
      <g>
       <use xlink:href="#m0ce19b5507" x="57.6" y="94.6944" style="stroke: #000000; stroke-width: 0.8"/>
      </g>
     </g>
     <g id="text_12">
      <!-- 0.8 -->
      <g transform="translate(34.696875 98.493619) scale(0.1 -0.1)">
       <use xlink:href="#DejaVuSans-30"/>
       <use xlink:href="#DejaVuSans-2e" x="63.623047"/>
       <use xlink:href="#DejaVuSans-38" x="95.410156"/>
      </g>
     </g>
    </g>
    <g id="ytick_6">
     <g id="line2d_12">
      <g>
       <use xlink:href="#m0ce19b5507" x="57.6" y="41.472" style="stroke: #000000; stroke-width: 0.8"/>
      </g>
     </g>
     <g id="text_13">
      <!-- 1.0 -->
      <g transform="translate(34.696875 45.271219) scale(0.1 -0.1)">
       <use xlink:href="#DejaVuSans-31"/>
       <use xlink:href="#DejaVuSans-2e" x="63.623047"/>
       <use xlink:href="#DejaVuSans-30" x="95.410156"/>
      </g>
     </g>
    </g>
    <g id="text_14">
     <!-- diabatic populations -->
     <g transform="translate(28.617187 225.292844) rotate(-90) scale(0.1 -0.1)">
      <defs>
       <path id="DejaVuSans-64" d="M 2906 2969 
L 2906 4863 
L 3481 4863 
L 3481 0 
L 2906 0 
L 2906 525 
Q 2725 213 2448 61 
Q 2172 -91 1784 -91 
Q 1150 -91 751 415 
Q 353 922 353 1747 
Q 353 2572 751 3078 
Q 1150 3584 1784 3584 
Q 2172 3584 2448 3432 
Q 2725 3281 2906 2969 
z
M 947 1747 
Q 947 1113 1208 752 
Q 1469 391 1925 391 
Q 2381 391 2643 752 
Q 2906 1113 2906 1747 
Q 2906 2381 2643 2742 
Q 2381 3103 1925 3103 
Q 1469 3103 1208 2742 
Q 947 2381 947 1747 
z
" transform="scale(0.015625)"/>
       <path id="DejaVuSans-69" d="M 603 3500 
L 1178 3500 
L 1178 0 
L 603 0 
L 603 3500 
z
M 603 4863 
L 1178 4863 
L 1178 4134 
L 603 4134 
L 603 4863 
z
" transform="scale(0.015625)"/>
       <path id="DejaVuSans-61" d="M 2194 1759 
Q 1497 1759 1228 1600 
Q 959 1441 959 1056 
Q 959 750 1161 570 
Q 1363 391 1709 391 
Q 2188 391 2477 730 
Q 2766 1069 2766 1631 
L 2766 1759 
L 2194 1759 
z
M 3341 1997 
L 3341 0 
L 2766 0 
L 2766 531 
Q 2569 213 2275 61 
Q 1981 -91 1556 -91 
Q 1019 -91 701 211 
Q 384 513 384 1019 
Q 384 1609 779 1909 
Q 1175 2209 1959 2209 
L 2766 2209 
L 2766 2266 
Q 2766 2663 2505 2880 
Q 2244 3097 1772 3097 
Q 1472 3097 1187 3025 
Q 903 2953 641 2809 
L 641 3341 
Q 956 3463 1253 3523 
Q 1550 3584 1831 3584 
Q 2591 3584 2966 3190 
Q 3341 2797 3341 1997 
z
" transform="scale(0.015625)"/>
       <path id="DejaVuSans-62" d="M 3116 1747 
Q 3116 2381 2855 2742 
Q 2594 3103 2138 3103 
Q 1681 3103 1420 2742 
Q 1159 2381 1159 1747 
Q 1159 1113 1420 752 
Q 1681 391 2138 391 
Q 2594 391 2855 752 
Q 3116 1113 3116 1747 
z
M 1159 2969 
Q 1341 3281 1617 3432 
Q 1894 3584 2278 3584 
Q 2916 3584 3314 3078 
Q 3713 2572 3713 1747 
Q 3713 922 3314 415 
Q 2916 -91 2278 -91 
Q 1894 -91 1617 61 
Q 1341 213 1159 525 
L 1159 0 
L 581 0 
L 581 4863 
L 1159 4863 
L 1159 2969 
z
" transform="scale(0.015625)"/>
       <path id="DejaVuSans-63" d="M 3122 3366 
L 3122 2828 
Q 2878 2963 2633 3030 
Q 2388 3097 2138 3097 
Q 1578 3097 1268 2742 
Q 959 2388 959 1747 
Q 959 1106 1268 751 
Q 1578 397 2138 397 
Q 2388 397 2633 464 
Q 2878 531 3122 666 
L 3122 134 
Q 2881 22 2623 -34 
Q 2366 -91 2075 -91 
Q 1284 -91 818 406 
Q 353 903 353 1747 
Q 353 2603 823 3093 
Q 1294 3584 2113 3584 
Q 2378 3584 2631 3529 
Q 2884 3475 3122 3366 
z
" transform="scale(0.015625)"/>
       <path id="DejaVuSans-20" transform="scale(0.015625)"/>
       <path id="DejaVuSans-6f" d="M 1959 3097 
Q 1497 3097 1228 2736 
Q 959 2375 959 1747 
Q 959 1119 1226 758 
Q 1494 397 1959 397 
Q 2419 397 2687 759 
Q 2956 1122 2956 1747 
Q 2956 2369 2687 2733 
Q 2419 3097 1959 3097 
z
M 1959 3584 
Q 2709 3584 3137 3096 
Q 3566 2609 3566 1747 
Q 3566 888 3137 398 
Q 2709 -91 1959 -91 
Q 1206 -91 779 398 
Q 353 888 353 1747 
Q 353 2609 779 3096 
Q 1206 3584 1959 3584 
z
" transform="scale(0.015625)"/>
       <path id="DejaVuSans-75" d="M 544 1381 
L 544 3500 
L 1119 3500 
L 1119 1403 
Q 1119 906 1312 657 
Q 1506 409 1894 409 
Q 2359 409 2629 706 
Q 2900 1003 2900 1516 
L 2900 3500 
L 3475 3500 
L 3475 0 
L 2900 0 
L 2900 538 
Q 2691 219 2414 64 
Q 2138 -91 1772 -91 
Q 1169 -91 856 284 
Q 544 659 544 1381 
z
M 1991 3584 
L 1991 3584 
z
" transform="scale(0.015625)"/>
       <path id="DejaVuSans-6c" d="M 603 4863 
L 1178 4863 
L 1178 0 
L 603 0 
L 603 4863 
z
" transform="scale(0.015625)"/>
       <path id="DejaVuSans-6e" d="M 3513 2113 
L 3513 0 
L 2938 0 
L 2938 2094 
Q 2938 2591 2744 2837 
Q 2550 3084 2163 3084 
Q 1697 3084 1428 2787 
Q 1159 2491 1159 1978 
L 1159 0 
L 581 0 
L 581 3500 
L 1159 3500 
L 1159 2956 
Q 1366 3272 1645 3428 
Q 1925 3584 2291 3584 
Q 2894 3584 3203 3211 
Q 3513 2838 3513 2113 
z
" transform="scale(0.015625)"/>
      </defs>
      <use xlink:href="#DejaVuSans-64"/>
      <use xlink:href="#DejaVuSans-69" x="63.476562"/>
      <use xlink:href="#DejaVuSans-61" x="91.259766"/>
      <use xlink:href="#DejaVuSans-62" x="152.539062"/>
      <use xlink:href="#DejaVuSans-61" x="216.015625"/>
      <use xlink:href="#DejaVuSans-74" x="277.294922"/>
      <use xlink:href="#DejaVuSans-69" x="316.503906"/>
      <use xlink:href="#DejaVuSans-63" x="344.287109"/>
      <use xlink:href="#DejaVuSans-20" x="399.267578"/>
      <use xlink:href="#DejaVuSans-70" x="431.054688"/>
      <use xlink:href="#DejaVuSans-6f" x="494.53125"/>
      <use xlink:href="#DejaVuSans-70" x="555.712891"/>
      <use xlink:href="#DejaVuSans-75" x="619.189453"/>
      <use xlink:href="#DejaVuSans-6c" x="682.568359"/>
      <use xlink:href="#DejaVuSans-61" x="710.351562"/>
      <use xlink:href="#DejaVuSans-74" x="771.630859"/>
      <use xlink:href="#DejaVuSans-69" x="810.839844"/>
      <use xlink:href="#DejaVuSans-6f" x="838.623047"/>
      <use xlink:href="#DejaVuSans-6e" x="899.804688"/>
      <use xlink:href="#DejaVuSans-73" x="963.183594"/>
     </g>
    </g>
   </g>
   <g id="line2d_13">
    <path d="M 73.832727 41.472 
L 74.165706 41.574572 
L 74.415441 41.804139 
L 74.665175 42.164343 
L 74.914909 42.654459 
L 75.164643 43.106718 
L 75.580867 44.441015 
L 75.913846 45.629583 
L 76.246825 47.010245 
L 76.663049 48.91446 
L 76.912783 50.329931 
L 77.329007 52.665025 
L 77.661986 55.244925 
L 78.161455 58.548624 
L 78.494434 61.091523 
L 78.744168 63.229655 
L 79.160392 66.599821 
L 79.493371 70.15202 
L 80.076084 75.143775 
L 80.409063 79.057444 
L 80.991776 84.4688 
L 81.324755 88.648602 
L 81.824224 93.628885 
L 82.073958 96.51398 
L 82.490182 100.879924 
L 82.823161 105.274557 
L 83.405874 111.145002 
L 83.738853 115.530805 
L 84.321566 121.319082 
L 84.654545 125.590938 
L 85.237259 131.158613 
L 85.570238 135.214541 
L 86.152951 140.428984 
L 86.48593 144.172673 
L 87.068643 148.910663 
L 87.401622 152.254215 
L 87.984336 156.405353 
L 88.317315 159.271487 
L 88.900028 162.740558 
L 89.233007 165.064013 
L 90.897902 171.973253 
L 91.813594 173.774709 
L 92.396308 174.124311 
L 92.729287 174.04453 
L 93.062266 173.76998 
L 93.312 173.411065 
L 93.561734 172.929433 
L 93.894713 172.156757 
L 94.227692 171.197291 
L 94.560671 170.054598 
L 94.89365 168.732818 
L 95.309874 166.916948 
L 95.726098 164.493377 
L 96.225566 161.756941 
L 96.558545 159.176149 
L 97.141259 155.419875 
L 97.474238 152.383601 
L 97.973706 148.62494 
L 98.223441 146.381165 
L 98.639664 142.896904 
L 98.972643 139.284684 
L 99.555357 134.298155 
L 99.888336 130.452794 
L 100.471049 125.218319 
L 100.804028 121.23498 
L 101.386741 115.881197 
L 101.71972 111.857039 
L 102.302434 106.513556 
L 102.635413 102.54532 
L 103.218126 97.339801 
L 103.551105 93.521748 
L 104.133818 88.577115 
L 104.466797 84.998804 
L 105.04951 80.430122 
L 105.38249 77.17405 
L 105.965203 73.085543 
L 106.298182 70.225135 
L 106.880895 66.707858 
L 107.213874 64.305955 
L 108.046322 60.149053 
L 108.296056 58.963721 
L 108.962014 56.456889 
L 109.211748 55.640772 
L 110.29393 53.392208 
L 110.876643 53.010526 
L 111.292867 53.067157 
L 111.625846 53.303029 
L 111.958825 53.708691 
L 112.291804 54.281971 
L 112.624783 55.020191 
L 113.041007 56.324658 
L 113.373986 57.444855 
L 113.79021 58.989574 
L 114.123189 60.438275 
L 114.372923 61.699141 
L 114.789147 63.753498 
L 115.122126 65.994235 
L 115.704839 69.252467 
L 116.037818 71.883614 
L 116.620531 75.617726 
L 116.95351 78.570511 
L 117.536224 82.684149 
L 117.869203 85.883239 
L 118.451916 90.27253 
L 118.784895 93.637927 
L 119.367608 98.194161 
L 119.700587 101.643327 
L 120.283301 106.255884 
L 120.61628 109.70593 
L 121.198993 114.265075 
L 121.531972 117.634709 
L 122.114685 122.033985 
L 122.447664 125.245215 
L 123.030378 129.383718 
L 123.363357 132.363635 
L 123.94607 136.148539 
L 124.279049 138.831264 
L 124.861762 142.180283 
L 125.194741 144.508566 
L 125.777455 147.35163 
L 126.110434 149.277769 
L 126.942881 152.570647 
L 127.192615 153.496356 
L 128.607776 156.984287 
L 129.356979 157.689369 
L 129.689958 157.779918 
L 130.106182 157.667116 
L 130.439161 157.417194 
L 130.77214 157.028132 
L 131.105119 156.502127 
L 131.438098 155.841782 
L 131.854322 154.876302 
L 132.270545 153.518891 
L 132.686769 152.165156 
L 133.019748 150.908656 
L 133.269483 149.822817 
L 133.685706 148.065697 
L 134.018685 146.162705 
L 134.601399 143.415216 
L 134.934378 141.210202 
L 135.517091 138.098021 
L 135.85007 135.649265 
L 136.432783 132.25349 
L 136.765762 129.624066 
L 137.348476 126.031204 
L 137.681455 123.287307 
L 138.264168 119.586602 
L 138.597147 116.795409 
L 139.17986 113.076163 
L 139.512839 110.304138 
L 140.095552 106.653903 
L 140.428531 103.965647 
L 141.011245 100.46867 
L 141.344224 97.92556 
L 141.926937 94.660642 
L 142.259916 92.319096 
L 142.842629 89.357392 
L 143.175608 87.267479 
L 143.758322 84.671103 
L 144.091301 82.875793 
L 144.590769 80.955499 
L 144.840503 79.945794 
L 145.256727 78.554766 
L 145.589706 77.315955 
L 147.171357 73.94808 
L 148.003804 73.241762 
L 148.336783 73.134294 
L 148.836252 73.214052 
L 149.169231 73.404661 
L 150.417902 75.112033 
L 150.834126 76.115949 
L 151.333594 77.309316 
L 151.583329 78.072734 
L 151.916308 79.106838 
L 152.166042 79.995557 
L 152.582266 81.426107 
L 152.915245 82.966994 
L 153.497958 85.179578 
L 153.830937 86.946892 
L 154.41365 89.430798 
L 154.746629 91.377792 
L 155.329343 94.068444 
L 155.662322 96.14529 
L 156.245035 98.974835 
L 156.578014 101.1299 
L 157.160727 104.028992 
L 157.493706 106.210219 
L 158.07642 109.109835 
L 158.409399 111.266023 
L 158.992112 114.099003 
L 159.325091 116.180836 
L 159.824559 118.550546 
L 160.074294 119.871325 
L 160.490517 121.80078 
L 160.823497 123.661443 
L 161.40621 126.022931 
L 161.739189 127.695831 
L 162.321902 129.783711 
L 162.654881 131.23536 
L 163.237594 133.008924 
L 163.570573 134.21179 
L 165.485203 138.371928 
L 166.650629 139.506922 
L 167.316587 139.652222 
L 167.816056 139.550548 
L 168.814993 138.707442 
L 169.314462 138.08181 
L 169.730685 137.307953 
L 170.230154 136.392636 
L 170.479888 135.808941 
L 170.812867 135.020066 
L 171.062601 134.343465 
L 171.478825 133.256547 
L 171.811804 132.088316 
L 172.394517 130.414588 
L 172.727497 129.080398 
L 173.31021 127.208823 
L 173.643189 125.744514 
L 174.225902 123.724607 
L 174.558881 122.168292 
L 175.05835 120.318319 
L 175.308084 119.24875 
L 175.724308 117.633041 
L 176.057287 116.010005 
L 176.64 113.846725 
L 176.972979 112.233874 
L 177.555692 110.109257 
L 177.888671 108.543864 
L 178.471385 106.506407 
L 178.804364 105.023637 
L 179.387077 103.118187 
L 179.720056 101.749934 
L 180.302769 100.016523 
L 180.635748 98.790894 
L 181.218462 97.264404 
L 181.551441 96.205554 
L 182.383888 94.324498 
L 182.633622 93.770932 
L 183.29958 92.554743 
L 183.549315 92.136898 
L 185.04772 90.517948 
L 185.963413 90.193304 
L 186.629371 90.264162 
L 187.128839 90.497934 
L 187.628308 90.827771 
L 188.127776 91.342845 
L 188.544 91.822058 
L 188.960224 92.477188 
L 189.459692 93.230545 
L 189.875916 94.076209 
L 190.375385 95.007828 
L 190.708364 95.869671 
L 191.207832 96.942759 
L 191.457566 97.585968 
L 191.87379 98.587949 
L 192.206769 99.630168 
L 192.789483 101.073708 
L 193.122462 102.190171 
L 193.705175 103.714037 
L 194.038154 104.876644 
L 194.620867 106.443227 
L 194.953846 107.623846 
L 195.536559 109.195949 
L 195.869538 110.367022 
L 196.452252 111.908491 
L 196.785231 113.043446 
L 197.367944 114.519771 
L 197.700923 115.59359 
L 198.283636 116.97286 
L 198.616615 117.962881 
L 199.199329 119.21677 
L 199.532308 120.103239 
L 200.115021 121.207418 
L 200.448 121.973587 
L 201.280448 123.335902 
L 201.530182 123.737322 
L 202.19614 124.620778 
L 202.445874 124.925084 
L 204.027524 126.146215 
L 204.443748 126.305491 
L 205.276196 126.373448 
L 206.191888 126.133378 
L 208.023273 124.697594 
L 208.439497 124.159324 
L 208.938965 123.557424 
L 209.355189 122.896454 
L 209.854657 122.181273 
L 210.270881 121.417018 
L 210.77035 120.609068 
L 211.103329 119.885972 
L 211.686042 118.884412 
L 212.019021 118.109817 
L 212.601734 117.052607 
L 212.934713 116.246028 
L 213.517427 115.159161 
L 213.850406 114.340072 
L 214.433119 113.249472 
L 214.766098 112.437222 
L 215.348811 111.368352 
L 215.68179 110.58159 
L 216.264503 109.55843 
L 216.597483 108.814324 
L 217.180196 107.858562 
L 217.513175 107.172473 
L 218.345622 105.890083 
L 218.595357 105.491731 
L 219.261315 104.565416 
L 219.511049 104.224163 
L 220.177007 103.448404 
L 220.426741 103.170109 
L 222.50786 101.640266 
L 223.756531 101.335056 
L 224.672224 101.395046 
L 225.338182 101.580164 
L 227.58579 103.071377 
L 228.085259 103.50797 
L 228.501483 103.983672 
L 229.000951 104.495088 
L 229.417175 105.038659 
L 229.916643 105.610689 
L 230.332867 106.207389 
L 230.832336 106.824916 
L 231.08207 107.185654 
L 231.498294 107.735574 
L 231.831273 108.293914 
L 232.413986 109.047284 
L 232.746965 109.615873 
L 233.329678 110.374178 
L 233.662657 110.939965 
L 234.245371 111.685996 
L 234.57835 112.236322 
L 235.161063 112.953709 
L 235.494042 113.476799 
L 236.32649 114.476205 
L 236.576224 114.793523 
L 237.242182 115.547496 
L 237.575161 115.901697 
L 237.90814 116.305128 
L 240.821706 118.439502 
L 242.569846 118.957028 
L 243.735273 118.959021 
L 244.73421 118.760785 
L 245.483413 118.507335 
L 246.232615 118.134365 
L 246.981818 117.711676 
L 247.481287 117.360524 
L 248.23049 116.824636 
L 248.646713 116.455539 
L 249.479161 115.780336 
L 249.895385 115.365962 
L 250.644587 114.691726 
L 251.060811 114.252038 
L 251.893259 113.488054 
L 252.309483 113.040986 
L 253.058685 112.343958 
L 253.474909 111.907727 
L 254.307357 111.18101 
L 254.72358 110.773167 
L 255.556028 110.108941 
L 255.972252 109.745285 
L 257.054434 108.991546 
L 257.470657 108.699406 
L 260.217734 107.499763 
L 261.965874 107.271739 
L 263.214545 107.36517 
L 264.379972 107.616558 
L 265.462154 108.011415 
L 266.294601 108.398916 
L 267.127049 108.813017 
L 267.626517 109.114831 
L 268.37572 109.557957 
L 268.791944 109.854089 
L 269.541147 110.336647 
L 269.957371 110.651856 
L 270.789818 111.200651 
L 271.206042 111.522516 
L 271.955245 112.025541 
L 272.371469 112.34119 
L 273.536895 113.081849 
L 273.953119 113.372186 
L 275.035301 113.993092 
L 275.451524 114.242808 
L 278.947804 115.578297 
L 281.028923 115.836443 
L 282.610573 115.752416 
L 283.859245 115.530023 
L 285.274406 115.122925 
L 286.273343 114.769628 
L 286.856056 114.533914 
L 287.854993 114.110037 
L 288.354462 113.871959 
L 289.353399 113.412158 
L 289.852867 113.163762 
L 290.851804 112.700695 
L 291.351273 112.458635 
L 292.683189 111.882572 
L 293.182657 111.668401 
L 297.344895 110.474233 
L 299.675748 110.303513 
L 301.590378 110.438898 
L 303.172028 110.715348 
L 304.587189 111.058155 
L 305.419636 111.307454 
L 306.751552 111.731567 
L 307.41751 111.979072 
L 308.832671 112.462733 
L 309.415385 112.669236 
L 310.997035 113.199233 
L 311.662993 113.425242 
L 316.324699 114.424736 
L 318.988531 114.542981 
L 321.152895 114.394229 
L 323.150769 114.102521 
L 324.482685 113.833185 
L 326.563804 113.377031 
L 327.396252 113.177772 
L 330.226573 112.550665 
L 331.22551 112.350135 
L 335.470993 111.858988 
L 338.21807 111.873462 
L 340.548923 112.077073 
L 343.212755 112.483117 
L 345.460364 112.89922 
L 346.542545 113.114852 
L 354.450797 114.205463 
L 357.780587 114.231029 
L 360.694154 114.038574 
L 364.190434 113.618156 
L 373.680336 112.725677 
L 376.926881 112.813867 
L 379.840448 113.060044 
L 382.088056 113.330725 
L 385.917315 113.823276 
L 387.332476 113.995618 
L 393.409343 114.424896 
L 397.321846 114.376787 
L 398.487273 114.31851 
L 398.487273 114.31851 
" clip-path="url(#pf3b2ccb2e1)" style="fill: none; stroke: #1f77b4; stroke-width: 1.5; stroke-linecap: square"/>
   </g>
   <g id="line2d_14">
    <path d="M 73.832727 307.584 
L 74.165706 307.481428 
L 74.415441 307.251861 
L 74.665175 306.891657 
L 74.914909 306.401541 
L 75.164643 305.949281 
L 75.580867 304.614985 
L 75.913846 303.426416 
L 76.246825 302.045755 
L 76.663049 300.141539 
L 76.912783 298.726068 
L 77.329007 296.390974 
L 77.661986 293.811074 
L 78.161455 290.507375 
L 78.494434 287.964475 
L 78.744168 285.826344 
L 79.160392 282.456178 
L 79.493371 278.903979 
L 80.076084 273.912223 
L 80.409063 269.998554 
L 80.991776 264.587199 
L 81.324755 260.407396 
L 81.824224 255.427113 
L 82.073958 252.542018 
L 82.490182 248.176073 
L 82.823161 243.781441 
L 83.405874 237.910996 
L 83.738853 233.525193 
L 84.321566 227.736915 
L 84.654545 223.465059 
L 85.237259 217.897384 
L 85.570238 213.841456 
L 86.152951 208.627013 
L 86.48593 204.883323 
L 87.068643 200.145334 
L 87.401622 196.801781 
L 87.984336 192.650643 
L 88.317315 189.78451 
L 88.900028 186.315438 
L 89.233007 183.991983 
L 90.897902 177.082743 
L 91.813594 175.281287 
L 92.396308 174.931684 
L 92.729287 175.011465 
L 93.062266 175.286015 
L 93.312 175.64493 
L 93.561734 176.126561 
L 93.894713 176.899238 
L 94.227692 177.858704 
L 94.560671 179.001397 
L 94.89365 180.323177 
L 95.309874 182.139046 
L 95.726098 184.562617 
L 96.225566 187.299054 
L 96.558545 189.879845 
L 97.141259 193.636119 
L 97.474238 196.672393 
L 97.973706 200.431054 
L 98.223441 202.674829 
L 98.639664 206.15909 
L 98.972643 209.77131 
L 99.555357 214.757838 
L 99.888336 218.603199 
L 100.471049 223.837674 
L 100.804028 227.821013 
L 101.386741 233.174796 
L 101.71972 237.198954 
L 102.302434 242.542437 
L 102.635413 246.510673 
L 103.218126 251.716191 
L 103.551105 255.534244 
L 104.133818 260.478877 
L 104.466797 264.057189 
L 105.04951 268.62587 
L 105.38249 271.881942 
L 105.965203 275.970449 
L 106.298182 278.830857 
L 106.880895 282.348134 
L 107.213874 284.750036 
L 108.046322 288.906939 
L 108.296056 290.09227 
L 108.962014 292.599102 
L 109.211748 293.415219 
L 110.29393 295.663783 
L 110.876643 296.045465 
L 111.292867 295.988834 
L 111.625846 295.752961 
L 111.958825 295.347299 
L 112.291804 294.774019 
L 112.624783 294.035799 
L 113.041007 292.731332 
L 113.373986 291.611135 
L 113.79021 290.066416 
L 114.123189 288.617714 
L 114.372923 287.356849 
L 114.789147 285.302491 
L 115.122126 283.061754 
L 115.704839 279.803522 
L 116.037818 277.172375 
L 116.620531 273.438264 
L 116.95351 270.485478 
L 117.536224 266.37184 
L 117.869203 263.17275 
L 118.451916 258.783459 
L 118.784895 255.418061 
L 119.367608 250.861827 
L 119.700587 247.412661 
L 120.283301 242.800104 
L 120.61628 239.350058 
L 121.198993 234.790913 
L 121.531972 231.421279 
L 122.114685 227.022003 
L 122.447664 223.810773 
L 123.030378 219.67227 
L 123.363357 216.692352 
L 123.94607 212.907448 
L 124.279049 210.224723 
L 124.861762 206.875703 
L 125.194741 204.547421 
L 125.777455 201.704356 
L 126.110434 199.778218 
L 126.942881 196.48534 
L 127.192615 195.559631 
L 128.607776 192.071699 
L 129.356979 191.366617 
L 129.689958 191.276068 
L 130.106182 191.388869 
L 130.439161 191.638791 
L 130.77214 192.027854 
L 131.105119 192.553859 
L 131.438098 193.214203 
L 131.854322 194.179683 
L 132.270545 195.537094 
L 132.686769 196.890829 
L 133.019748 198.147329 
L 133.269483 199.233168 
L 133.685706 200.990287 
L 134.018685 202.89328 
L 134.601399 205.640768 
L 134.934378 207.845783 
L 135.517091 210.957964 
L 135.85007 213.406719 
L 136.432783 216.802494 
L 136.765762 219.431918 
L 137.348476 223.02478 
L 137.681455 225.768677 
L 138.264168 229.469382 
L 138.597147 232.260575 
L 139.17986 235.979821 
L 139.512839 238.751846 
L 140.095552 242.40208 
L 140.428531 245.090336 
L 141.011245 248.587313 
L 141.344224 251.130423 
L 141.926937 254.395341 
L 142.259916 256.736886 
L 142.842629 259.698591 
L 143.175608 261.788503 
L 143.758322 264.38488 
L 144.091301 266.180189 
L 144.590769 268.100483 
L 144.840503 269.110188 
L 145.256727 270.501216 
L 145.589706 271.740026 
L 147.171357 275.107901 
L 148.003804 275.814219 
L 148.336783 275.921687 
L 148.836252 275.841929 
L 149.169231 275.65132 
L 150.417902 273.943948 
L 150.834126 272.940032 
L 151.333594 271.746664 
L 151.583329 270.983246 
L 151.916308 269.949142 
L 152.166042 269.060423 
L 152.582266 267.629873 
L 152.915245 266.088985 
L 153.497958 263.876402 
L 153.830937 262.109088 
L 154.41365 259.625182 
L 154.746629 257.678187 
L 155.329343 254.987535 
L 155.662322 252.910689 
L 156.245035 250.081144 
L 156.578014 247.926079 
L 157.160727 245.026987 
L 157.493706 242.845759 
L 158.07642 239.946144 
L 158.409399 237.789955 
L 158.992112 234.956975 
L 159.325091 232.875142 
L 159.824559 230.505433 
L 160.074294 229.184653 
L 160.490517 227.255198 
L 160.823497 225.394535 
L 161.40621 223.033047 
L 161.739189 221.360147 
L 162.321902 219.272266 
L 162.654881 217.820617 
L 163.237594 216.047053 
L 163.570573 214.844187 
L 165.485203 210.684049 
L 166.650629 209.549054 
L 167.316587 209.403754 
L 167.816056 209.505428 
L 168.814993 210.348534 
L 169.314462 210.974166 
L 169.730685 211.748023 
L 170.230154 212.663339 
L 170.479888 213.247035 
L 170.812867 214.035909 
L 171.062601 214.71251 
L 171.478825 215.799428 
L 171.811804 216.967659 
L 172.394517 218.641387 
L 172.727497 219.975576 
L 173.31021 221.847152 
L 173.643189 223.311461 
L 174.225902 225.331367 
L 174.558881 226.887682 
L 175.05835 228.737655 
L 175.308084 229.807224 
L 175.724308 231.422933 
L 176.057287 233.045969 
L 176.64 235.209249 
L 176.972979 236.8221 
L 177.555692 238.946717 
L 177.888671 240.512109 
L 178.471385 242.549566 
L 178.804364 244.032336 
L 179.387077 245.937786 
L 179.720056 247.306039 
L 180.302769 249.039449 
L 180.635748 250.265079 
L 181.218462 251.791569 
L 181.551441 252.850418 
L 182.383888 254.731474 
L 182.633622 255.28504 
L 183.29958 256.501229 
L 183.549315 256.919074 
L 185.04772 258.538023 
L 185.963413 258.862667 
L 186.629371 258.791809 
L 187.128839 258.558037 
L 187.628308 258.2282 
L 188.127776 257.713126 
L 188.544 257.233913 
L 188.960224 256.578783 
L 189.459692 255.825426 
L 189.875916 254.979762 
L 190.375385 254.048142 
L 190.708364 253.186299 
L 191.207832 252.113211 
L 191.457566 251.470002 
L 191.87379 250.468021 
L 192.206769 249.425801 
L 192.789483 247.982262 
L 193.122462 246.865798 
L 193.705175 245.341932 
L 194.038154 244.179325 
L 194.620867 242.612742 
L 194.953846 241.432123 
L 195.536559 239.86002 
L 195.869538 238.688947 
L 196.452252 237.147477 
L 196.785231 236.012522 
L 197.367944 234.536198 
L 197.700923 233.462378 
L 198.283636 232.083109 
L 198.616615 231.093087 
L 199.199329 229.839198 
L 199.532308 228.952729 
L 200.115021 227.84855 
L 200.448 227.082381 
L 201.280448 225.720065 
L 201.530182 225.318645 
L 202.19614 224.43519 
L 202.445874 224.130884 
L 204.027524 222.909752 
L 204.443748 222.750476 
L 205.276196 222.682518 
L 206.191888 222.922588 
L 208.023273 224.358371 
L 208.439497 224.896642 
L 208.938965 225.498542 
L 209.355189 226.159511 
L 209.854657 226.874692 
L 210.270881 227.638948 
L 210.77035 228.446897 
L 211.103329 229.169993 
L 211.686042 230.171553 
L 212.019021 230.946148 
L 212.601734 232.003358 
L 212.934713 232.809937 
L 213.517427 233.896804 
L 213.850406 234.715892 
L 214.433119 235.806492 
L 214.766098 236.618742 
L 215.348811 237.687612 
L 215.68179 238.474374 
L 216.264503 239.497534 
L 216.597483 240.241639 
L 217.180196 241.197402 
L 217.513175 241.883491 
L 218.345622 243.165881 
L 218.595357 243.564232 
L 219.261315 244.490546 
L 219.511049 244.8318 
L 220.177007 245.607559 
L 220.426741 245.885853 
L 222.50786 247.415696 
L 223.756531 247.720906 
L 224.672224 247.660915 
L 225.338182 247.475797 
L 227.58579 245.984584 
L 228.085259 245.54799 
L 228.501483 245.072289 
L 229.000951 244.560872 
L 229.417175 244.017301 
L 229.916643 243.445271 
L 230.332867 242.848571 
L 230.832336 242.231044 
L 231.08207 241.870306 
L 231.498294 241.320386 
L 231.831273 240.762046 
L 232.413986 240.008676 
L 232.746965 239.440087 
L 233.329678 238.681782 
L 233.662657 238.115994 
L 234.245371 237.369964 
L 234.57835 236.819637 
L 235.161063 236.10225 
L 235.494042 235.57916 
L 236.32649 234.579754 
L 236.576224 234.262435 
L 237.242182 233.508463 
L 237.575161 233.154261 
L 237.90814 232.750831 
L 240.821706 230.616455 
L 242.569846 230.098929 
L 243.735273 230.096936 
L 244.73421 230.295171 
L 245.483413 230.548621 
L 246.232615 230.921591 
L 246.981818 231.34428 
L 247.481287 231.695432 
L 248.23049 232.23132 
L 248.646713 232.600417 
L 249.479161 233.275619 
L 249.895385 233.689993 
L 250.644587 234.364229 
L 251.060811 234.803917 
L 251.893259 235.5679 
L 252.309483 236.014968 
L 253.058685 236.711997 
L 253.474909 237.148227 
L 254.307357 237.874944 
L 254.72358 238.282787 
L 255.556028 238.947013 
L 255.972252 239.310668 
L 257.054434 240.064407 
L 257.470657 240.356547 
L 260.217734 241.55619 
L 261.965874 241.784213 
L 263.214545 241.690782 
L 264.379972 241.439394 
L 265.462154 241.044536 
L 266.294601 240.657035 
L 267.127049 240.242934 
L 267.626517 239.94112 
L 268.37572 239.497994 
L 268.791944 239.201861 
L 269.541147 238.719303 
L 269.957371 238.404094 
L 270.789818 237.855298 
L 271.206042 237.533434 
L 271.955245 237.030408 
L 272.371469 236.714759 
L 273.536895 235.974101 
L 273.953119 235.683763 
L 275.035301 235.062857 
L 275.451524 234.813141 
L 278.947804 233.477651 
L 281.028923 233.219504 
L 282.610573 233.303531 
L 283.859245 233.525923 
L 285.274406 233.933021 
L 286.273343 234.286318 
L 286.856056 234.522031 
L 287.854993 234.945909 
L 288.354462 235.183986 
L 289.353399 235.643787 
L 289.852867 235.892183 
L 290.851804 236.35525 
L 291.351273 236.597309 
L 292.683189 237.173372 
L 293.182657 237.387543 
L 297.344895 238.58171 
L 299.675748 238.75243 
L 301.590378 238.617044 
L 303.172028 238.340594 
L 304.587189 237.997787 
L 305.419636 237.748487 
L 306.751552 237.324374 
L 307.41751 237.076868 
L 308.832671 236.593207 
L 309.415385 236.386704 
L 310.997035 235.856706 
L 311.662993 235.630698 
L 316.324699 234.631202 
L 318.988531 234.512957 
L 321.152895 234.661708 
L 323.150769 234.953416 
L 324.482685 235.222751 
L 326.563804 235.678905 
L 327.396252 235.878163 
L 330.226573 236.50527 
L 331.22551 236.7058 
L 335.470993 237.196945 
L 338.21807 237.182471 
L 340.548923 236.97886 
L 343.212755 236.572814 
L 345.460364 236.156711 
L 346.542545 235.941078 
L 354.450797 234.850465 
L 357.780587 234.824899 
L 360.694154 235.017352 
L 364.190434 235.43777 
L 373.680336 236.330247 
L 376.926881 236.242056 
L 379.840448 235.995878 
L 382.088056 235.725197 
L 385.917315 235.232644 
L 387.332476 235.060302 
L 393.409343 234.631023 
L 397.321846 234.67913 
L 398.487273 234.737407 
L 398.487273 234.737407 
" clip-path="url(#pf3b2ccb2e1)" style="fill: none; stroke: #ff7f0e; stroke-width: 1.5; stroke-linecap: square"/>
   </g>
   <g id="patch_3">
    <path d="M 57.6 307.584 
L 57.6 41.472 
" style="fill: none; stroke: #000000; stroke-width: 0.8; stroke-linejoin: miter; stroke-linecap: square"/>
   </g>
   <g id="patch_4">
    <path d="M 414.72 307.584 
L 414.72 41.472 
" style="fill: none; stroke: #000000; stroke-width: 0.8; stroke-linejoin: miter; stroke-linecap: square"/>
   </g>
   <g id="patch_5">
    <path d="M 57.6 307.584 
L 414.72 307.584 
" style="fill: none; stroke: #000000; stroke-width: 0.8; stroke-linejoin: miter; stroke-linecap: square"/>
   </g>
   <g id="patch_6">
    <path d="M 57.6 41.472 
L 414.72 41.472 
" style="fill: none; stroke: #000000; stroke-width: 0.8; stroke-linejoin: miter; stroke-linecap: square"/>
   </g>
   <g id="legend_1">
    <g id="patch_7">
     <path d="M 346.421563 78.82825 
L 407.72 78.82825 
Q 409.72 78.82825 409.72 76.82825 
L 409.72 48.472 
Q 409.72 46.472 407.72 46.472 
L 346.421563 46.472 
Q 344.421563 46.472 344.421563 48.472 
L 344.421563 76.82825 
Q 344.421563 78.82825 346.421563 78.82825 
z
" style="fill: #ffffff; opacity: 0.8; stroke: #cccccc; stroke-linejoin: miter"/>
    </g>
    <g id="line2d_15">
     <path d="M 348.421563 54.570437 
L 358.421563 54.570437 
L 368.421563 54.570437 
" style="fill: none; stroke: #1f77b4; stroke-width: 1.5; stroke-linecap: square"/>
    </g>
    <g id="text_15">
     <!-- upper -->
     <g transform="translate(376.421563 58.070437) scale(0.1 -0.1)">
      <defs>
       <path id="DejaVuSans-65" d="M 3597 1894 
L 3597 1613 
L 953 1613 
Q 991 1019 1311 708 
Q 1631 397 2203 397 
Q 2534 397 2845 478 
Q 3156 559 3463 722 
L 3463 178 
Q 3153 47 2828 -22 
Q 2503 -91 2169 -91 
Q 1331 -91 842 396 
Q 353 884 353 1716 
Q 353 2575 817 3079 
Q 1281 3584 2069 3584 
Q 2775 3584 3186 3129 
Q 3597 2675 3597 1894 
z
M 3022 2063 
Q 3016 2534 2758 2815 
Q 2500 3097 2075 3097 
Q 1594 3097 1305 2825 
Q 1016 2553 972 2059 
L 3022 2063 
z
" transform="scale(0.015625)"/>
       <path id="DejaVuSans-72" d="M 2631 2963 
Q 2534 3019 2420 3045 
Q 2306 3072 2169 3072 
Q 1681 3072 1420 2755 
Q 1159 2438 1159 1844 
L 1159 0 
L 581 0 
L 581 3500 
L 1159 3500 
L 1159 2956 
Q 1341 3275 1631 3429 
Q 1922 3584 2338 3584 
Q 2397 3584 2469 3576 
Q 2541 3569 2628 3553 
L 2631 2963 
z
" transform="scale(0.015625)"/>
      </defs>
      <use xlink:href="#DejaVuSans-75"/>
      <use xlink:href="#DejaVuSans-70" x="63.378906"/>
      <use xlink:href="#DejaVuSans-70" x="126.855469"/>
      <use xlink:href="#DejaVuSans-65" x="190.332031"/>
      <use xlink:href="#DejaVuSans-72" x="251.855469"/>
     </g>
    </g>
    <g id="line2d_16">
     <path d="M 348.421563 69.248562 
L 358.421563 69.248562 
L 368.421563 69.248562 
" style="fill: none; stroke: #ff7f0e; stroke-width: 1.5; stroke-linecap: square"/>
    </g>
    <g id="text_16">
     <!-- lower -->
     <g transform="translate(376.421563 72.748562) scale(0.1 -0.1)">
      <defs>
       <path id="DejaVuSans-77" d="M 269 3500 
L 844 3500 
L 1563 769 
L 2278 3500 
L 2956 3500 
L 3675 769 
L 4391 3500 
L 4966 3500 
L 4050 0 
L 3372 0 
L 2619 2869 
L 1863 0 
L 1184 0 
L 269 3500 
z
" transform="scale(0.015625)"/>
      </defs>
      <use xlink:href="#DejaVuSans-6c"/>
      <use xlink:href="#DejaVuSans-6f" x="27.783203"/>
      <use xlink:href="#DejaVuSans-77" x="88.964844"/>
      <use xlink:href="#DejaVuSans-65" x="170.751953"/>
      <use xlink:href="#DejaVuSans-72" x="232.275391"/>
     </g>
    </g>
   </g>
  </g>
 </g>
 <defs>
  <clipPath id="pf3b2ccb2e1">
   <rect x="57.6" y="41.472" width="357.12" height="266.112"/>
  </clipPath>
 </defs>
</svg>
